<?xml version="1.0" encoding="UTF-8" standalone="no"?>
<!DOCTYPE svg PUBLIC "-//W3C//DTD SVG 1.1//EN"
 "http://www.w3.org/Graphics/SVG/1.1/DTD/svg11.dtd">
<!-- Generated by graphviz version 2.38.0 (20140413.2041)
 -->
<!-- Title: src/FastMath.h Pages: 1 -->
<svg width="920pt" height="95pt"
 viewBox="0.00 0.00 919.50 95.00" xmlns="http://www.w3.org/2000/svg" xmlns:xlink="http://www.w3.org/1999/xlink">
<g id="graph0" class="graph" transform="scale(1 1) rotate(0) translate(4 91)">
<title>src/FastMath.h</title>
<polygon fill="white" stroke="none" points="-4,4 -4,-91 915.5,-91 915.5,4 -4,4"/>
<!-- Node1 -->
<g id="node1" class="node"><title>Node1</title>
<polygon fill="#bfbfbf" stroke="black" points="416,-67.5 416,-86.5 499,-86.5 499,-67.5 416,-67.5"/>
<text text-anchor="middle" x="457.5" y="-74.5" font-family="Helvetica,sans-Serif" font-size="10.00">src/FastMath.h</text>
</g>
<!-- Node2 -->
<g id="node2" class="node"><title>Node2</title>
<g id="a_node2"><a xlink:href="_fast_math_8cpp.html" target="_top" xlink:title="src/FastMath.cpp">
<polygon fill="white" stroke="black" points="0,-6 0,-25 93,-25 93,-6 0,-6"/>
<text text-anchor="middle" x="46.5" y="-13" font-family="Helvetica,sans-Serif" font-size="10.00">src/FastMath.cpp</text>
</a>
</g>
</g>
<!-- Node1&#45;&gt;Node2 -->
<g id="edge1" class="edge"><title>Node1&#45;&gt;Node2</title>
<path fill="none" stroke="midnightblue" d="M405.578,-71.6036C335.952,-65.2154 208.677,-51.8073 101.5,-31 93.1633,-29.3815 84.2208,-27.2141 76.0204,-25.0491"/>
<polygon fill="midnightblue" stroke="midnightblue" points="405.56,-75.1162 415.835,-72.532 406.191,-68.1447 405.56,-75.1162"/>
</g>
<!-- Node3 -->
<g id="node3" class="node"><title>Node3</title>
<g id="a_node3"><a xlink:href="_fast_math__test_8cpp.html" target="_top" xlink:title="src/FastMath_test.cpp">
<polygon fill="white" stroke="black" points="111,-6 111,-25 226,-25 226,-6 111,-6"/>
<text text-anchor="middle" x="168.5" y="-13" font-family="Helvetica,sans-Serif" font-size="10.00">src/FastMath_test.cpp</text>
</a>
</g>
</g>
<!-- Node1&#45;&gt;Node3 -->
<g id="edge2" class="edge"><title>Node1&#45;&gt;Node3</title>
<path fill="none" stroke="midnightblue" d="M406.08,-65.8837C360.849,-56.9228 293.245,-43.3792 234.5,-31 225.546,-29.1131 215.921,-27.03 206.866,-25.0453"/>
<polygon fill="midnightblue" stroke="midnightblue" points="405.456,-69.328 415.945,-67.8357 406.815,-62.4611 405.456,-69.328"/>
</g>
<!-- Node4 -->
<g id="node4" class="node"><title>Node4</title>
<g id="a_node4"><a xlink:href="_fast_math_sine_table_8cpp.html" target="_top" xlink:title="src/FastMathSineTable.cpp">
<polygon fill="white" stroke="black" points="244,-6 244,-25 381,-25 381,-6 244,-6"/>
<text text-anchor="middle" x="312.5" y="-13" font-family="Helvetica,sans-Serif" font-size="10.00">src/FastMathSineTable.cpp</text>
</a>
</g>
</g>
<!-- Node1&#45;&gt;Node4 -->
<g id="edge3" class="edge"><title>Node1&#45;&gt;Node4</title>
<path fill="none" stroke="midnightblue" d="M427.358,-63.6313C399.187,-52.0717 357.876,-35.12 333.236,-25.0091"/>
<polygon fill="midnightblue" stroke="midnightblue" points="426.145,-66.9168 436.725,-67.4751 428.802,-60.4408 426.145,-66.9168"/>
</g>
<!-- Node5 -->
<g id="node5" class="node"><title>Node5</title>
<g id="a_node5"><a xlink:href="gen_sine_tables_8cpp.html" target="_top" xlink:title="src/genSineTables.cpp">
<polygon fill="white" stroke="black" points="399.5,-6 399.5,-25 515.5,-25 515.5,-6 399.5,-6"/>
<text text-anchor="middle" x="457.5" y="-13" font-family="Helvetica,sans-Serif" font-size="10.00">src/genSineTables.cpp</text>
</a>
</g>
</g>
<!-- Node1&#45;&gt;Node5 -->
<g id="edge4" class="edge"><title>Node1&#45;&gt;Node5</title>
<path fill="none" stroke="midnightblue" d="M457.5,-57.3165C457.5,-46.4962 457.5,-33.398 457.5,-25.0091"/>
<polygon fill="midnightblue" stroke="midnightblue" points="454,-57.4751 457.5,-67.4751 461,-57.4751 454,-57.4751"/>
</g>
<!-- Node6 -->
<g id="node6" class="node"><title>Node6</title>
<g id="a_node6"><a xlink:href="_glider_vario_transition_matrix_8cpp.html" target="_top" xlink:title="src/GliderVarioTransition\lMatrix.cpp">
<polygon fill="white" stroke="black" points="533.5,-0.5 533.5,-30.5 657.5,-30.5 657.5,-0.5 533.5,-0.5"/>
<text text-anchor="start" x="541.5" y="-18.5" font-family="Helvetica,sans-Serif" font-size="10.00">src/GliderVarioTransition</text>
<text text-anchor="middle" x="595.5" y="-7.5" font-family="Helvetica,sans-Serif" font-size="10.00">Matrix.cpp</text>
</a>
</g>
</g>
<!-- Node1&#45;&gt;Node6 -->
<g id="edge5" class="edge"><title>Node1&#45;&gt;Node6</title>
<path fill="none" stroke="midnightblue" d="M486.583,-63.4605C508.936,-53.823 539.807,-40.5127 562.976,-30.523"/>
<polygon fill="midnightblue" stroke="midnightblue" points="485.069,-60.3018 477.272,-67.4751 487.841,-66.7298 485.069,-60.3018"/>
</g>
<!-- Node7 -->
<g id="node7" class="node"><title>Node7</title>
<g id="a_node7"><a xlink:href="open_e_vario_8cpp.html" target="_top" xlink:title="src/openEVario.cpp">
<polygon fill="white" stroke="black" points="675.5,-6 675.5,-25 777.5,-25 777.5,-6 675.5,-6"/>
<text text-anchor="middle" x="726.5" y="-13" font-family="Helvetica,sans-Serif" font-size="10.00">src/openEVario.cpp</text>
</a>
</g>
</g>
<!-- Node1&#45;&gt;Node7 -->
<g id="edge6" class="edge"><title>Node1&#45;&gt;Node7</title>
<path fill="none" stroke="midnightblue" d="M508.61,-65.3686C550.973,-56.4671 612.735,-43.2827 666.5,-31 674.753,-29.1145 683.627,-27.0119 691.951,-25.0057"/>
<polygon fill="midnightblue" stroke="midnightblue" points="507.878,-61.9459 498.809,-67.4242 509.315,-68.7968 507.878,-61.9459"/>
</g>
<!-- Node8 -->
<g id="node8" class="node"><title>Node8</title>
<g id="a_node8"><a xlink:href="_rotation_matrix_8cpp.html" target="_top" xlink:title="src/RotationMatrix.cpp">
<polygon fill="white" stroke="black" points="795.5,-6 795.5,-25 911.5,-25 911.5,-6 795.5,-6"/>
<text text-anchor="middle" x="853.5" y="-13" font-family="Helvetica,sans-Serif" font-size="10.00">src/RotationMatrix.cpp</text>
</a>
</g>
</g>
<!-- Node1&#45;&gt;Node8 -->
<g id="edge7" class="edge"><title>Node1&#45;&gt;Node8</title>
<path fill="none" stroke="midnightblue" d="M509.196,-70.1808C574.156,-62.5814 688.957,-48.1994 786.5,-31 796.228,-29.2847 806.691,-27.1575 816.389,-25.0657"/>
<polygon fill="midnightblue" stroke="midnightblue" points="508.738,-66.7104 499.209,-71.3416 509.546,-73.6636 508.738,-66.7104"/>
</g>
</g>
</svg>
