<?xml version="1.0" encoding="UTF-8" standalone="no"?>
<!DOCTYPE svg PUBLIC "-//W3C//DTD SVG 1.1//EN"
 "http://www.w3.org/Graphics/SVG/1.1/DTD/svg11.dtd">
<!-- Generated by graphviz version 2.38.0 (20140413.2041)
 -->
<!-- Title: src/GliderVarioTransitionMatrix.cpp Pages: 1 -->
<svg width="409pt" height="207pt"
 viewBox="0.00 0.00 408.50 207.00" xmlns="http://www.w3.org/2000/svg" xmlns:xlink="http://www.w3.org/1999/xlink">
<g id="graph0" class="graph" transform="scale(1 1) rotate(0) translate(4 203)">
<title>src/GliderVarioTransitionMatrix.cpp</title>
<polygon fill="white" stroke="none" points="-4,4 -4,-203 404.5,-203 404.5,4 -4,4"/>
<!-- Node1 -->
<g id="node1" class="node"><title>Node1</title>
<polygon fill="#bfbfbf" stroke="black" points="145.5,-168.5 145.5,-198.5 269.5,-198.5 269.5,-168.5 145.5,-168.5"/>
<text text-anchor="start" x="153.5" y="-186.5" font-family="Helvetica,sans-Serif" font-size="10.00">src/GliderVarioTransition</text>
<text text-anchor="middle" x="207.5" y="-175.5" font-family="Helvetica,sans-Serif" font-size="10.00">Matrix.cpp</text>
</g>
<!-- Node2 -->
<g id="node2" class="node"><title>Node2</title>
<g id="a_node2"><a xlink:href="_glider_vario_transition_matrix_8h.html" target="_top" xlink:title="GliderVarioTransitionMatrix.h">
<polygon fill="white" stroke="black" points="0,-112.5 0,-131.5 143,-131.5 143,-112.5 0,-112.5"/>
<text text-anchor="middle" x="71.5" y="-119.5" font-family="Helvetica,sans-Serif" font-size="10.00">GliderVarioTransitionMatrix.h</text>
</a>
</g>
</g>
<!-- Node1&#45;&gt;Node2 -->
<g id="edge1" class="edge"><title>Node1&#45;&gt;Node2</title>
<path fill="none" stroke="midnightblue" d="M175.27,-168.399C152.655,-158.505 122.662,-145.383 100.739,-135.792"/>
<polygon fill="midnightblue" stroke="midnightblue" points="101.854,-132.459 91.2892,-131.658 99.0479,-138.873 101.854,-132.459"/>
</g>
<!-- Node3 -->
<g id="node3" class="node"><title>Node3</title>
<g id="a_node3"><a xlink:href="_glider_vario_status_8h.html" target="_top" xlink:title="GliderVarioStatus.h">
<polygon fill="white" stroke="black" points="142,-56.5 142,-75.5 243,-75.5 243,-56.5 142,-56.5"/>
<text text-anchor="middle" x="192.5" y="-63.5" font-family="Helvetica,sans-Serif" font-size="10.00">GliderVarioStatus.h</text>
</a>
</g>
</g>
<!-- Node1&#45;&gt;Node3 -->
<g id="edge4" class="edge"><title>Node1&#45;&gt;Node3</title>
<path fill="none" stroke="midnightblue" d="M201.309,-168.233C197.342,-158.289 192.564,-144.598 190.5,-132 187.987,-116.661 188.756,-99.0217 190.003,-85.9921"/>
<polygon fill="midnightblue" stroke="midnightblue" points="193.498,-86.2341 191.151,-75.9023 186.543,-85.4422 193.498,-86.2341"/>
</g>
<!-- Node5 -->
<g id="node5" class="node"><title>Node5</title>
<g id="a_node5"><a xlink:href="_rotation_matrix_8h.html" target="_top" xlink:title="RotationMatrix.h">
<polygon fill="white" stroke="black" points="200,-112.5 200,-131.5 289,-131.5 289,-112.5 200,-112.5"/>
<text text-anchor="middle" x="244.5" y="-119.5" font-family="Helvetica,sans-Serif" font-size="10.00">RotationMatrix.h</text>
</a>
</g>
</g>
<!-- Node1&#45;&gt;Node5 -->
<g id="edge5" class="edge"><title>Node1&#45;&gt;Node5</title>
<path fill="none" stroke="midnightblue" d="M216.268,-168.399C221.479,-160.021 228.129,-149.327 233.666,-140.423"/>
<polygon fill="midnightblue" stroke="midnightblue" points="236.808,-141.998 239.116,-131.658 230.863,-138.302 236.808,-141.998"/>
</g>
<!-- Node6 -->
<g id="node6" class="node"><title>Node6</title>
<g id="a_node6"><a xlink:href="_fast_math_8h.html" target="_top" xlink:title="FastMath.h">
<polygon fill="white" stroke="black" points="307.5,-112.5 307.5,-131.5 373.5,-131.5 373.5,-112.5 307.5,-112.5"/>
<text text-anchor="middle" x="340.5" y="-119.5" font-family="Helvetica,sans-Serif" font-size="10.00">FastMath.h</text>
</a>
</g>
</g>
<!-- Node1&#45;&gt;Node6 -->
<g id="edge7" class="edge"><title>Node1&#45;&gt;Node6</title>
<path fill="none" stroke="midnightblue" d="M239.019,-168.399C261.135,-158.505 290.467,-145.383 311.906,-135.792"/>
<polygon fill="midnightblue" stroke="midnightblue" points="313.448,-138.936 321.147,-131.658 310.59,-132.547 313.448,-138.936"/>
</g>
<!-- Node2&#45;&gt;Node3 -->
<g id="edge2" class="edge"><title>Node2&#45;&gt;Node3</title>
<path fill="none" stroke="midnightblue" d="M90.6728,-112.444C110.409,-103.636 141.385,-89.8116 163.993,-79.722"/>
<polygon fill="midnightblue" stroke="midnightblue" points="165.711,-82.788 173.417,-75.5164 162.859,-76.3957 165.711,-82.788"/>
</g>
<!-- Node4 -->
<g id="node4" class="node"><title>Node4</title>
<polygon fill="white" stroke="#bfbfbf" points="170,-0.5 170,-19.5 215,-19.5 215,-0.5 170,-0.5"/>
<text text-anchor="middle" x="192.5" y="-7.5" font-family="Helvetica,sans-Serif" font-size="10.00">Dense</text>
</g>
<!-- Node3&#45;&gt;Node4 -->
<g id="edge3" class="edge"><title>Node3&#45;&gt;Node4</title>
<path fill="none" stroke="midnightblue" d="M192.5,-56.083C192.5,-49.0059 192.5,-38.8611 192.5,-29.9865"/>
<polygon fill="midnightblue" stroke="midnightblue" points="196,-29.751 192.5,-19.7511 189,-29.7511 196,-29.751"/>
</g>
<!-- Node5&#45;&gt;Node3 -->
<g id="edge6" class="edge"><title>Node5&#45;&gt;Node3</title>
<path fill="none" stroke="midnightblue" d="M235.913,-112.083C228.341,-104.22 217.122,-92.5688 207.986,-83.0813"/>
<polygon fill="midnightblue" stroke="midnightblue" points="210.385,-80.5266 200.927,-75.7511 205.342,-85.3821 210.385,-80.5266"/>
</g>
<!-- Node6&#45;&gt;Node3 -->
<g id="edge10" class="edge"><title>Node6&#45;&gt;Node3</title>
<path fill="none" stroke="midnightblue" d="M317.049,-112.444C292.367,-103.438 253.315,-89.1891 225.523,-79.049"/>
<polygon fill="midnightblue" stroke="midnightblue" points="226.435,-75.6561 215.841,-75.5164 224.036,-82.2321 226.435,-75.6561"/>
</g>
<!-- Node7 -->
<g id="node7" class="node"><title>Node7</title>
<polygon fill="white" stroke="#bfbfbf" points="283,-56.5 283,-75.5 330,-75.5 330,-56.5 283,-56.5"/>
<text text-anchor="middle" x="306.5" y="-63.5" font-family="Helvetica,sans-Serif" font-size="10.00">math.h</text>
</g>
<!-- Node6&#45;&gt;Node7 -->
<g id="edge8" class="edge"><title>Node6&#45;&gt;Node7</title>
<path fill="none" stroke="midnightblue" d="M334.886,-112.083C330.133,-104.534 323.182,-93.4948 317.348,-84.2298"/>
<polygon fill="midnightblue" stroke="midnightblue" points="320.3,-82.3486 312.01,-75.7511 314.376,-86.0783 320.3,-82.3486"/>
</g>
<!-- Node8 -->
<g id="node8" class="node"><title>Node8</title>
<polygon fill="white" stroke="#bfbfbf" points="348.5,-56.5 348.5,-75.5 400.5,-75.5 400.5,-56.5 348.5,-56.5"/>
<text text-anchor="middle" x="374.5" y="-63.5" font-family="Helvetica,sans-Serif" font-size="10.00">assert.h</text>
</g>
<!-- Node6&#45;&gt;Node8 -->
<g id="edge9" class="edge"><title>Node6&#45;&gt;Node8</title>
<path fill="none" stroke="midnightblue" d="M346.114,-112.083C350.867,-104.534 357.818,-93.4948 363.652,-84.2298"/>
<polygon fill="midnightblue" stroke="midnightblue" points="366.624,-86.0783 368.99,-75.7511 360.7,-82.3486 366.624,-86.0783"/>
</g>
</g>
</svg>
