<?xml version="1.0" encoding="UTF-8" standalone="no"?>
<!DOCTYPE svg PUBLIC "-//W3C//DTD SVG 1.1//EN"
 "http://www.w3.org/Graphics/SVG/1.1/DTD/svg11.dtd">
<!-- Generated by graphviz version 2.38.0 (20140413.2041)
 -->
<!-- Title: src/GliderVarioMeasurementMatrix.h Pages: 1 -->
<svg width="426pt" height="106pt"
 viewBox="0.00 0.00 426.00 106.00" xmlns="http://www.w3.org/2000/svg" xmlns:xlink="http://www.w3.org/1999/xlink">
<g id="graph0" class="graph" transform="scale(1 1) rotate(0) translate(4 102)">
<title>src/GliderVarioMeasurementMatrix.h</title>
<polygon fill="white" stroke="none" points="-4,4 -4,-102 422,-102 422,4 -4,4"/>
<!-- Node1 -->
<g id="node1" class="node"><title>Node1</title>
<polygon fill="#bfbfbf" stroke="black" points="158,-67.5 158,-97.5 298,-97.5 298,-67.5 158,-67.5"/>
<text text-anchor="start" x="166" y="-85.5" font-family="Helvetica,sans-Serif" font-size="10.00">src/GliderVarioMeasurement</text>
<text text-anchor="middle" x="228" y="-74.5" font-family="Helvetica,sans-Serif" font-size="10.00">Matrix.h</text>
</g>
<!-- Node2 -->
<g id="node2" class="node"><title>Node2</title>
<g id="a_node2"><a xlink:href="_glider_vario_measurement_matrix_8cpp.html" target="_top" xlink:title="src/GliderVarioMeasurement\lMatrix.cpp">
<polygon fill="white" stroke="black" points="0,-0.5 0,-30.5 140,-30.5 140,-0.5 0,-0.5"/>
<text text-anchor="start" x="8" y="-18.5" font-family="Helvetica,sans-Serif" font-size="10.00">src/GliderVarioMeasurement</text>
<text text-anchor="middle" x="70" y="-7.5" font-family="Helvetica,sans-Serif" font-size="10.00">Matrix.cpp</text>
</a>
</g>
</g>
<!-- Node1&#45;&gt;Node2 -->
<g id="edge1" class="edge"><title>Node1&#45;&gt;Node2</title>
<path fill="none" stroke="midnightblue" d="M184.354,-63.5442C159.071,-53.143 127.702,-40.238 104.217,-30.5765"/>
<polygon fill="midnightblue" stroke="midnightblue" points="183.137,-66.8282 193.716,-67.396 185.8,-60.3546 183.137,-66.8282"/>
</g>
<!-- Node3 -->
<g id="node3" class="node"><title>Node3</title>
<g id="a_node3"><a xlink:href="_glider_vario_measurement_matrix__test_8cpp.html" target="_top" xlink:title="src/GliderVarioMeasurement\lMatrix_test.cpp">
<polygon fill="white" stroke="black" points="158,-0.5 158,-30.5 298,-30.5 298,-0.5 158,-0.5"/>
<text text-anchor="start" x="166" y="-18.5" font-family="Helvetica,sans-Serif" font-size="10.00">src/GliderVarioMeasurement</text>
<text text-anchor="middle" x="228" y="-7.5" font-family="Helvetica,sans-Serif" font-size="10.00">Matrix_test.cpp</text>
</a>
</g>
</g>
<!-- Node1&#45;&gt;Node3 -->
<g id="edge2" class="edge"><title>Node1&#45;&gt;Node3</title>
<path fill="none" stroke="midnightblue" d="M228,-57.1081C228,-48.1539 228,-38.3227 228,-30.5765"/>
<polygon fill="midnightblue" stroke="midnightblue" points="224.5,-57.3959 228,-67.396 231.5,-57.396 224.5,-57.3959"/>
</g>
<!-- Node4 -->
<g id="node4" class="node"><title>Node4</title>
<g id="a_node4"><a xlink:href="open_e_vario_8cpp.html" target="_top" xlink:title="src/openEVario.cpp">
<polygon fill="white" stroke="black" points="316,-6 316,-25 418,-25 418,-6 316,-6"/>
<text text-anchor="middle" x="367" y="-13" font-family="Helvetica,sans-Serif" font-size="10.00">src/openEVario.cpp</text>
</a>
</g>
</g>
<!-- Node1&#45;&gt;Node4 -->
<g id="edge3" class="edge"><title>Node1&#45;&gt;Node4</title>
<path fill="none" stroke="midnightblue" d="M267.28,-63.1315C294.035,-50.6205 328.209,-34.6399 348.808,-25.007"/>
<polygon fill="midnightblue" stroke="midnightblue" points="265.737,-59.9894 258.161,-67.396 268.702,-66.3304 265.737,-59.9894"/>
</g>
</g>
</svg>
