<?xml version="1.0" encoding="UTF-8" standalone="no"?>
<!DOCTYPE svg PUBLIC "-//W3C//DTD SVG 1.1//EN"
 "http://www.w3.org/Graphics/SVG/1.1/DTD/svg11.dtd">
<!-- Generated by graphviz version 2.38.0 (20140413.2041)
 -->
<!-- Title: src/GliderVarioMeasurementMatrix.h Pages: 1 -->
<svg width="214pt" height="207pt"
 viewBox="0.00 0.00 213.50 207.00" xmlns="http://www.w3.org/2000/svg" xmlns:xlink="http://www.w3.org/1999/xlink">
<g id="graph0" class="graph" transform="scale(1 1) rotate(0) translate(4 203)">
<title>src/GliderVarioMeasurementMatrix.h</title>
<polygon fill="white" stroke="none" points="-4,4 -4,-203 209.5,-203 209.5,4 -4,4"/>
<!-- Node1 -->
<g id="node1" class="node"><title>Node1</title>
<polygon fill="#bfbfbf" stroke="black" points="0,-168.5 0,-198.5 140,-198.5 140,-168.5 0,-168.5"/>
<text text-anchor="start" x="8" y="-186.5" font-family="Helvetica,sans-Serif" font-size="10.00">src/GliderVarioMeasurement</text>
<text text-anchor="middle" x="70" y="-175.5" font-family="Helvetica,sans-Serif" font-size="10.00">Matrix.h</text>
</g>
<!-- Node2 -->
<g id="node2" class="node"><title>Node2</title>
<g id="a_node2"><a xlink:href="_glider_vario_status_8h.html" target="_top" xlink:title="GliderVarioStatus.h">
<polygon fill="white" stroke="black" points="19.5,-56.5 19.5,-75.5 120.5,-75.5 120.5,-56.5 19.5,-56.5"/>
<text text-anchor="middle" x="70" y="-63.5" font-family="Helvetica,sans-Serif" font-size="10.00">GliderVarioStatus.h</text>
</a>
</g>
</g>
<!-- Node1&#45;&gt;Node2 -->
<g id="edge1" class="edge"><title>Node1&#45;&gt;Node2</title>
<path fill="none" stroke="midnightblue" d="M56.6358,-168.319C48.6551,-158.84 39.2655,-145.643 35,-132 32.3474,-123.516 32.1152,-120.408 35,-112 38.719,-101.161 46.2332,-90.9216 53.349,-82.9566"/>
<polygon fill="midnightblue" stroke="midnightblue" points="56.0542,-85.1922 60.4444,-75.5497 50.9993,-80.3498 56.0542,-85.1922"/>
</g>
<!-- Node4 -->
<g id="node4" class="node"><title>Node4</title>
<g id="a_node4"><a xlink:href="_glider_vario_measurement_vector_8h.html" target="_top" xlink:title="GliderVarioMeasurementVector.h">
<polygon fill="white" stroke="black" points="44.5,-112.5 44.5,-131.5 205.5,-131.5 205.5,-112.5 44.5,-112.5"/>
<text text-anchor="middle" x="125" y="-119.5" font-family="Helvetica,sans-Serif" font-size="10.00">GliderVarioMeasurementVector.h</text>
</a>
</g>
</g>
<!-- Node1&#45;&gt;Node4 -->
<g id="edge3" class="edge"><title>Node1&#45;&gt;Node4</title>
<path fill="none" stroke="midnightblue" d="M83.0342,-168.399C91.1912,-159.575 101.722,-148.183 110.194,-139.018"/>
<polygon fill="midnightblue" stroke="midnightblue" points="112.779,-141.377 116.997,-131.658 107.639,-136.625 112.779,-141.377"/>
</g>
<!-- Node3 -->
<g id="node3" class="node"><title>Node3</title>
<polygon fill="white" stroke="#bfbfbf" points="47.5,-0.5 47.5,-19.5 92.5,-19.5 92.5,-0.5 47.5,-0.5"/>
<text text-anchor="middle" x="70" y="-7.5" font-family="Helvetica,sans-Serif" font-size="10.00">Dense</text>
</g>
<!-- Node2&#45;&gt;Node3 -->
<g id="edge2" class="edge"><title>Node2&#45;&gt;Node3</title>
<path fill="none" stroke="midnightblue" d="M70,-56.083C70,-49.0059 70,-38.8611 70,-29.9865"/>
<polygon fill="midnightblue" stroke="midnightblue" points="73.5001,-29.751 70,-19.7511 66.5001,-29.7511 73.5001,-29.751"/>
</g>
<!-- Node4&#45;&gt;Node2 -->
<g id="edge4" class="edge"><title>Node4&#45;&gt;Node2</title>
<path fill="none" stroke="midnightblue" d="M115.918,-112.083C107.829,-104.141 95.8046,-92.3354 86.0898,-82.7973"/>
<polygon fill="midnightblue" stroke="midnightblue" points="88.5009,-80.2595 78.9131,-75.7511 83.5967,-85.2545 88.5009,-80.2595"/>
</g>
</g>
</svg>
