<?xml version="1.0" encoding="UTF-8" standalone="no"?>
<!DOCTYPE svg PUBLIC "-//W3C//DTD SVG 1.1//EN"
 "http://www.w3.org/Graphics/SVG/1.1/DTD/svg11.dtd">
<!-- Generated by graphviz version 2.38.0 (20140413.2041)
 -->
<!-- Title: src/GliderVarioStatus.h Pages: 1 -->
<svg width="2029pt" height="229pt"
 viewBox="0.00 0.00 2028.50 229.00" xmlns="http://www.w3.org/2000/svg" xmlns:xlink="http://www.w3.org/1999/xlink">
<g id="graph0" class="graph" transform="scale(1 1) rotate(0) translate(4 225)">
<title>src/GliderVarioStatus.h</title>
<polygon fill="white" stroke="none" points="-4,4 -4,-225 2024.5,-225 2024.5,4 -4,4"/>
<!-- Node1 -->
<g id="node1" class="node"><title>Node1</title>
<polygon fill="#bfbfbf" stroke="black" points="1071.5,-201.5 1071.5,-220.5 1189.5,-220.5 1189.5,-201.5 1071.5,-201.5"/>
<text text-anchor="middle" x="1130.5" y="-208.5" font-family="Helvetica,sans-Serif" font-size="10.00">src/GliderVarioStatus.h</text>
</g>
<!-- Node2 -->
<g id="node2" class="node"><title>Node2</title>
<g id="a_node2"><a xlink:href="_fast_math_8h.html" target="_top" xlink:title="src/FastMath.h">
<polygon fill="white" stroke="black" points="454,-140 454,-159 537,-159 537,-140 454,-140"/>
<text text-anchor="middle" x="495.5" y="-147" font-family="Helvetica,sans-Serif" font-size="10.00">src/FastMath.h</text>
</a>
</g>
</g>
<!-- Node1&#45;&gt;Node2 -->
<g id="edge1" class="edge"><title>Node1&#45;&gt;Node2</title>
<path fill="none" stroke="midnightblue" d="M1061.31,-203.517C929.045,-191.124 643.978,-164.413 537.1,-154.398"/>
<polygon fill="midnightblue" stroke="midnightblue" points="1061.05,-207.008 1071.33,-204.456 1061.7,-200.038 1061.05,-207.008"/>
</g>
<!-- Node7 -->
<g id="node7" class="node"><title>Node7</title>
<g id="a_node7"><a xlink:href="_glider_vario_transition_matrix_8cpp.html" target="_top" xlink:title="src/GliderVarioTransition\lMatrix.cpp">
<polygon fill="white" stroke="black" points="743.5,-67.5 743.5,-97.5 867.5,-97.5 867.5,-67.5 743.5,-67.5"/>
<text text-anchor="start" x="751.5" y="-85.5" font-family="Helvetica,sans-Serif" font-size="10.00">src/GliderVarioTransition</text>
<text text-anchor="middle" x="805.5" y="-74.5" font-family="Helvetica,sans-Serif" font-size="10.00">Matrix.cpp</text>
</a>
</g>
</g>
<!-- Node1&#45;&gt;Node7 -->
<g id="edge21" class="edge"><title>Node1&#45;&gt;Node7</title>
<path fill="none" stroke="midnightblue" d="M1061.26,-209.107C1009.01,-205.773 937.082,-195.332 881.5,-165 851.611,-148.689 826.897,-116.284 814.37,-97.624"/>
<polygon fill="midnightblue" stroke="midnightblue" points="1061.26,-212.612 1071.44,-209.683 1061.65,-205.623 1061.26,-212.612"/>
</g>
<!-- Node8 -->
<g id="node8" class="node"><title>Node8</title>
<g id="a_node8"><a xlink:href="open_e_vario_8cpp.html" target="_top" xlink:title="src/openEVario.cpp">
<polygon fill="white" stroke="black" points="882.5,-6 882.5,-25 984.5,-25 984.5,-6 882.5,-6"/>
<text text-anchor="middle" x="933.5" y="-13" font-family="Helvetica,sans-Serif" font-size="10.00">src/openEVario.cpp</text>
</a>
</g>
</g>
<!-- Node1&#45;&gt;Node8 -->
<g id="edge30" class="edge"><title>Node1&#45;&gt;Node8</title>
<path fill="none" stroke="midnightblue" d="M1061.07,-200.38C1017.18,-192.884 965.933,-181.047 950.5,-165 912.725,-125.723 925.485,-50.9573 931.29,-25.3565"/>
<polygon fill="midnightblue" stroke="midnightblue" points="1060.73,-203.872 1071.17,-202.052 1061.87,-196.966 1060.73,-203.872"/>
</g>
<!-- Node11 -->
<g id="node11" class="node"><title>Node11</title>
<g id="a_node11"><a xlink:href="_glider_vario_measurement_matrix_8h.html" target="_top" xlink:title="src/GliderVarioMeasurement\lMatrix.h">
<polygon fill="white" stroke="black" points="1801.5,-67.5 1801.5,-97.5 1941.5,-97.5 1941.5,-67.5 1801.5,-67.5"/>
<text text-anchor="start" x="1809.5" y="-85.5" font-family="Helvetica,sans-Serif" font-size="10.00">src/GliderVarioMeasurement</text>
<text text-anchor="middle" x="1871.5" y="-74.5" font-family="Helvetica,sans-Serif" font-size="10.00">Matrix.h</text>
</a>
</g>
</g>
<!-- Node1&#45;&gt;Node11 -->
<g id="edge10" class="edge"><title>Node1&#45;&gt;Node11</title>
<path fill="none" stroke="midnightblue" d="M1200.03,-207.038C1299.64,-201.995 1477.45,-189.782 1536.5,-165 1556.6,-156.566 1554.63,-142.967 1574.5,-134 1664.01,-93.6011 1695.76,-114.865 1792.5,-98 1795.38,-97.4971 1798.33,-96.9791 1801.3,-96.452"/>
<polygon fill="midnightblue" stroke="midnightblue" points="1199.57,-203.557 1189.76,-207.547 1199.92,-210.548 1199.57,-203.557"/>
</g>
<!-- Node14 -->
<g id="node14" class="node"><title>Node14</title>
<g id="a_node14"><a xlink:href="_glider_vario_measurement_vector_8h.html" target="_top" xlink:title="src/GliderVarioMeasurement\lVector.h">
<polygon fill="white" stroke="black" points="1387.5,-134.5 1387.5,-164.5 1527.5,-164.5 1527.5,-134.5 1387.5,-134.5"/>
<text text-anchor="start" x="1395.5" y="-152.5" font-family="Helvetica,sans-Serif" font-size="10.00">src/GliderVarioMeasurement</text>
<text text-anchor="middle" x="1457.5" y="-141.5" font-family="Helvetica,sans-Serif" font-size="10.00">Vector.h</text>
</a>
</g>
</g>
<!-- Node1&#45;&gt;Node14 -->
<g id="edge14" class="edge"><title>Node1&#45;&gt;Node14</title>
<path fill="none" stroke="midnightblue" d="M1187.37,-199.652C1242.91,-189.547 1327.55,-174.145 1387.27,-163.28"/>
<polygon fill="midnightblue" stroke="midnightblue" points="1186.56,-196.241 1177.35,-201.475 1187.82,-203.128 1186.56,-196.241"/>
</g>
<!-- Node17 -->
<g id="node17" class="node"><title>Node17</title>
<g id="a_node17"><a xlink:href="_glider_vario_status_8cpp.html" target="_top" xlink:title="src/GliderVarioStatus.cpp">
<polygon fill="white" stroke="black" points="1583.5,-140 1583.5,-159 1711.5,-159 1711.5,-140 1583.5,-140"/>
<text text-anchor="middle" x="1647.5" y="-147" font-family="Helvetica,sans-Serif" font-size="10.00">src/GliderVarioStatus.cpp</text>
</a>
</g>
</g>
<!-- Node1&#45;&gt;Node17 -->
<g id="edge19" class="edge"><title>Node1&#45;&gt;Node17</title>
<path fill="none" stroke="midnightblue" d="M1199.6,-204.673C1286.26,-197.588 1439.29,-183.744 1569.5,-165 1581.09,-163.332 1593.58,-161.173 1605.1,-159.033"/>
<polygon fill="midnightblue" stroke="midnightblue" points="1199.31,-201.185 1189.62,-205.482 1199.87,-208.162 1199.31,-201.185"/>
</g>
<!-- Node18 -->
<g id="node18" class="node"><title>Node18</title>
<g id="a_node18"><a xlink:href="_glider_vario_status__test_8cpp.html" target="_top" xlink:title="src/GliderVarioStatus\l_test.cpp">
<polygon fill="white" stroke="black" points="1729.5,-134.5 1729.5,-164.5 1839.5,-164.5 1839.5,-134.5 1729.5,-134.5"/>
<text text-anchor="start" x="1737.5" y="-152.5" font-family="Helvetica,sans-Serif" font-size="10.00">src/GliderVarioStatus</text>
<text text-anchor="middle" x="1784.5" y="-141.5" font-family="Helvetica,sans-Serif" font-size="10.00">_test.cpp</text>
</a>
</g>
</g>
<!-- Node1&#45;&gt;Node18 -->
<g id="edge20" class="edge"><title>Node1&#45;&gt;Node18</title>
<path fill="none" stroke="midnightblue" d="M1199.89,-208.003C1310.55,-204.08 1533.58,-193.147 1720.5,-165 1723.43,-164.559 1726.42,-164.058 1729.44,-163.514"/>
<polygon fill="midnightblue" stroke="midnightblue" points="1199.73,-204.506 1189.86,-208.35 1199.98,-211.502 1199.73,-204.506"/>
</g>
<!-- Node19 -->
<g id="node19" class="node"><title>Node19</title>
<g id="a_node19"><a xlink:href="_rotation_matrix_8h.html" target="_top" xlink:title="src/RotationMatrix.h">
<polygon fill="white" stroke="black" points="680,-140 680,-159 785,-159 785,-140 680,-140"/>
<text text-anchor="middle" x="732.5" y="-147" font-family="Helvetica,sans-Serif" font-size="10.00">src/RotationMatrix.h</text>
</a>
</g>
</g>
<!-- Node1&#45;&gt;Node19 -->
<g id="edge22" class="edge"><title>Node1&#45;&gt;Node19</title>
<path fill="none" stroke="midnightblue" d="M1061.01,-200.541C997.532,-191.773 901.11,-178.139 817.5,-165 805.669,-163.141 792.932,-161.028 781.01,-159.001"/>
<polygon fill="midnightblue" stroke="midnightblue" points="1060.91,-204.06 1071.3,-201.959 1061.87,-197.126 1060.91,-204.06"/>
</g>
<!-- Node20 -->
<g id="node20" class="node"><title>Node20</title>
<g id="a_node20"><a xlink:href="_glider_vario_transition_matrix_8h.html" target="_top" xlink:title="src/GliderVarioTransition\lMatrix.h">
<polygon fill="white" stroke="black" points="959.5,-134.5 959.5,-164.5 1083.5,-164.5 1083.5,-134.5 959.5,-134.5"/>
<text text-anchor="start" x="967.5" y="-152.5" font-family="Helvetica,sans-Serif" font-size="10.00">src/GliderVarioTransition</text>
<text text-anchor="middle" x="1021.5" y="-141.5" font-family="Helvetica,sans-Serif" font-size="10.00">Matrix.h</text>
</a>
</g>
</g>
<!-- Node1&#45;&gt;Node20 -->
<g id="edge26" class="edge"><title>Node1&#45;&gt;Node20</title>
<path fill="none" stroke="midnightblue" d="M1105.85,-196.542C1088.35,-186.991 1064.92,-174.199 1047.19,-164.523"/>
<polygon fill="midnightblue" stroke="midnightblue" points="1104.43,-199.756 1114.88,-201.475 1107.78,-193.612 1104.43,-199.756"/>
</g>
<!-- Node22 -->
<g id="node22" class="node"><title>Node22</title>
<g id="a_node22"><a xlink:href="_rot_matrix_conversion_8h.html" target="_top" xlink:title="src/RotMatrixConversion.h">
<polygon fill="white" stroke="black" points="1172.5,-140 1172.5,-159 1306.5,-159 1306.5,-140 1172.5,-140"/>
<text text-anchor="middle" x="1239.5" y="-147" font-family="Helvetica,sans-Serif" font-size="10.00">src/RotMatrixConversion.h</text>
</a>
</g>
</g>
<!-- Node1&#45;&gt;Node22 -->
<g id="edge31" class="edge"><title>Node1&#45;&gt;Node22</title>
<path fill="none" stroke="midnightblue" d="M1155.13,-196.556C1176.22,-185.042 1205.96,-168.811 1223.91,-159.009"/>
<polygon fill="midnightblue" stroke="midnightblue" points="1153.22,-193.612 1146.12,-201.475 1156.57,-199.756 1153.22,-193.612"/>
</g>
<!-- Node3 -->
<g id="node3" class="node"><title>Node3</title>
<g id="a_node3"><a xlink:href="_fast_math_8cpp.html" target="_top" xlink:title="src/FastMath.cpp">
<polygon fill="white" stroke="black" points="0,-73 0,-92 93,-92 93,-73 0,-73"/>
<text text-anchor="middle" x="46.5" y="-80" font-family="Helvetica,sans-Serif" font-size="10.00">src/FastMath.cpp</text>
</a>
</g>
</g>
<!-- Node2&#45;&gt;Node3 -->
<g id="edge2" class="edge"><title>Node2&#45;&gt;Node3</title>
<path fill="none" stroke="midnightblue" d="M443.595,-144.021C367.909,-137 223.035,-121.705 101.5,-98 93.1647,-96.3743 84.2227,-94.2044 76.0223,-92.0395"/>
<polygon fill="midnightblue" stroke="midnightblue" points="443.528,-147.53 453.806,-144.957 444.167,-140.559 443.528,-147.53"/>
</g>
<!-- Node4 -->
<g id="node4" class="node"><title>Node4</title>
<g id="a_node4"><a xlink:href="_fast_math__test_8cpp.html" target="_top" xlink:title="src/FastMath_test.cpp">
<polygon fill="white" stroke="black" points="111,-73 111,-92 226,-92 226,-73 111,-73"/>
<text text-anchor="middle" x="168.5" y="-80" font-family="Helvetica,sans-Serif" font-size="10.00">src/FastMath_test.cpp</text>
</a>
</g>
</g>
<!-- Node2&#45;&gt;Node4 -->
<g id="edge3" class="edge"><title>Node2&#45;&gt;Node4</title>
<path fill="none" stroke="midnightblue" d="M443.736,-138.881C391.019,-128.992 306.959,-112.967 234.5,-98 225.424,-96.1252 215.664,-94.0267 206.507,-92.021"/>
<polygon fill="midnightblue" stroke="midnightblue" points="443.375,-142.374 453.848,-140.775 444.664,-135.494 443.375,-142.374"/>
</g>
<!-- Node5 -->
<g id="node5" class="node"><title>Node5</title>
<g id="a_node5"><a xlink:href="_fast_math_sine_table_8cpp.html" target="_top" xlink:title="src/FastMathSineTable.cpp">
<polygon fill="white" stroke="black" points="244,-73 244,-92 381,-92 381,-73 244,-73"/>
<text text-anchor="middle" x="312.5" y="-80" font-family="Helvetica,sans-Serif" font-size="10.00">src/FastMathSineTable.cpp</text>
</a>
</g>
</g>
<!-- Node2&#45;&gt;Node5 -->
<g id="edge4" class="edge"><title>Node2&#45;&gt;Node5</title>
<path fill="none" stroke="midnightblue" d="M461.536,-136.436C425.233,-123.542 368.594,-103.424 336.61,-92.0637"/>
<polygon fill="midnightblue" stroke="midnightblue" points="460.604,-139.82 471.199,-139.869 462.947,-133.223 460.604,-139.82"/>
</g>
<!-- Node6 -->
<g id="node6" class="node"><title>Node6</title>
<g id="a_node6"><a xlink:href="gen_sine_tables_8cpp.html" target="_top" xlink:title="src/genSineTables.cpp">
<polygon fill="white" stroke="black" points="437.5,-73 437.5,-92 553.5,-92 553.5,-73 437.5,-73"/>
<text text-anchor="middle" x="495.5" y="-80" font-family="Helvetica,sans-Serif" font-size="10.00">src/genSineTables.cpp</text>
</a>
</g>
</g>
<!-- Node2&#45;&gt;Node6 -->
<g id="edge5" class="edge"><title>Node2&#45;&gt;Node6</title>
<path fill="none" stroke="midnightblue" d="M495.5,-129.537C495.5,-117.17 495.5,-101.62 495.5,-92.1273"/>
<polygon fill="midnightblue" stroke="midnightblue" points="492,-129.734 495.5,-139.734 499,-129.734 492,-129.734"/>
</g>
<!-- Node2&#45;&gt;Node7 -->
<g id="edge6" class="edge"><title>Node2&#45;&gt;Node7</title>
<path fill="none" stroke="midnightblue" d="M546.368,-137.834C600.304,-126.525 685.535,-108.654 743.398,-96.5215"/>
<polygon fill="midnightblue" stroke="midnightblue" points="545.415,-134.458 536.346,-139.936 546.851,-141.309 545.415,-134.458"/>
</g>
<!-- Node2&#45;&gt;Node8 -->
<g id="edge7" class="edge"><title>Node2&#45;&gt;Node8</title>
<path fill="none" stroke="midnightblue" d="M470.73,-134.847C443.924,-118.387 407.63,-90.0612 428.5,-67 458.579,-33.7633 759.947,-21.4568 882.29,-17.807"/>
<polygon fill="midnightblue" stroke="midnightblue" points="468.972,-137.873 479.361,-139.949 472.534,-131.847 468.972,-137.873"/>
</g>
<!-- Node9 -->
<g id="node9" class="node"><title>Node9</title>
<g id="a_node9"><a xlink:href="_rotation_matrix_8cpp.html" target="_top" xlink:title="src/RotationMatrix.cpp">
<polygon fill="white" stroke="black" points="571.5,-73 571.5,-92 687.5,-92 687.5,-73 571.5,-73"/>
<text text-anchor="middle" x="629.5" y="-80" font-family="Helvetica,sans-Serif" font-size="10.00">src/RotationMatrix.cpp</text>
</a>
</g>
</g>
<!-- Node2&#45;&gt;Node9 -->
<g id="edge8" class="edge"><title>Node2&#45;&gt;Node9</title>
<path fill="none" stroke="midnightblue" d="M522.416,-135.444C548.958,-122.569 588.77,-103.257 611.632,-92.1672"/>
<polygon fill="midnightblue" stroke="midnightblue" points="520.764,-132.355 513.294,-139.869 523.819,-138.653 520.764,-132.355"/>
</g>
<!-- Node10 -->
<g id="node10" class="node"><title>Node10</title>
<g id="a_node10"><a xlink:href="_rot_matrix_conversion_8cpp.html" target="_top" xlink:title="src/RotMatrixConversion.cpp">
<polygon fill="white" stroke="black" points="961.5,-73 961.5,-92 1105.5,-92 1105.5,-73 961.5,-73"/>
<text text-anchor="middle" x="1033.5" y="-80" font-family="Helvetica,sans-Serif" font-size="10.00">src/RotMatrixConversion.cpp</text>
</a>
</g>
</g>
<!-- Node2&#45;&gt;Node10 -->
<g id="edge9" class="edge"><title>Node2&#45;&gt;Node10</title>
<path fill="none" stroke="midnightblue" d="M547.421,-142.227C644.471,-130.502 853.446,-105.254 963.084,-92.0075"/>
<polygon fill="midnightblue" stroke="midnightblue" points="546.776,-138.779 537.268,-143.454 547.616,-145.729 546.776,-138.779"/>
</g>
<!-- Node11&#45;&gt;Node8 -->
<g id="edge13" class="edge"><title>Node11&#45;&gt;Node8</title>
<path fill="none" stroke="midnightblue" d="M1791.22,-66.9489C1479.43,-29.9475 1116.4,-19.8916 984.525,-17.3159"/>
<polygon fill="midnightblue" stroke="midnightblue" points="1791.01,-70.449 1801.36,-68.1638 1791.84,-63.4988 1791.01,-70.449"/>
</g>
<!-- Node12 -->
<g id="node12" class="node"><title>Node12</title>
<g id="a_node12"><a xlink:href="_glider_vario_measurement_matrix_8cpp.html" target="_top" xlink:title="src/GliderVarioMeasurement\lMatrix.cpp">
<polygon fill="white" stroke="black" points="1880.5,-0.5 1880.5,-30.5 2020.5,-30.5 2020.5,-0.5 1880.5,-0.5"/>
<text text-anchor="start" x="1888.5" y="-18.5" font-family="Helvetica,sans-Serif" font-size="10.00">src/GliderVarioMeasurement</text>
<text text-anchor="middle" x="1950.5" y="-7.5" font-family="Helvetica,sans-Serif" font-size="10.00">Matrix.cpp</text>
</a>
</g>
</g>
<!-- Node11&#45;&gt;Node12 -->
<g id="edge11" class="edge"><title>Node11&#45;&gt;Node12</title>
<path fill="none" stroke="midnightblue" d="M1896.56,-60.8832C1908.56,-51.0054 1922.63,-39.4293 1933.39,-30.5765"/>
<polygon fill="midnightblue" stroke="midnightblue" points="1894.14,-58.3395 1888.64,-67.396 1898.59,-63.745 1894.14,-58.3395"/>
</g>
<!-- Node13 -->
<g id="node13" class="node"><title>Node13</title>
<g id="a_node13"><a xlink:href="_glider_vario_measurement_matrix__test_8cpp.html" target="_top" xlink:title="src/GliderVarioMeasurement\lMatrix_test.cpp">
<polygon fill="white" stroke="black" points="1722.5,-0.5 1722.5,-30.5 1862.5,-30.5 1862.5,-0.5 1722.5,-0.5"/>
<text text-anchor="start" x="1730.5" y="-18.5" font-family="Helvetica,sans-Serif" font-size="10.00">src/GliderVarioMeasurement</text>
<text text-anchor="middle" x="1792.5" y="-7.5" font-family="Helvetica,sans-Serif" font-size="10.00">Matrix_test.cpp</text>
</a>
</g>
</g>
<!-- Node11&#45;&gt;Node13 -->
<g id="edge12" class="edge"><title>Node11&#45;&gt;Node13</title>
<path fill="none" stroke="midnightblue" d="M1846.44,-60.8832C1834.44,-51.0054 1820.37,-39.4293 1809.61,-30.5765"/>
<polygon fill="midnightblue" stroke="midnightblue" points="1844.41,-63.745 1854.36,-67.396 1848.86,-58.3395 1844.41,-63.745"/>
</g>
<!-- Node14&#45;&gt;Node8 -->
<g id="edge18" class="edge"><title>Node14&#45;&gt;Node8</title>
<path fill="none" stroke="midnightblue" d="M1458.5,-124.123C1457.82,-105.59 1453.59,-80.9733 1437.5,-67 1403.76,-37.7044 1105.9,-23.0944 984.581,-18.3173"/>
<polygon fill="midnightblue" stroke="midnightblue" points="1455,-124.222 1458.54,-134.206 1462,-124.19 1455,-124.222"/>
</g>
<!-- Node14&#45;&gt;Node11 -->
<g id="edge15" class="edge"><title>Node14&#45;&gt;Node11</title>
<path fill="none" stroke="midnightblue" d="M1537.65,-134.613C1538.94,-134.406 1540.23,-134.201 1541.5,-134 1652.82,-116.413 1681.28,-116.176 1792.5,-98 1795.39,-97.5277 1798.34,-97.0353 1801.31,-96.5294"/>
<polygon fill="midnightblue" stroke="midnightblue" points="1536.91,-131.187 1527.6,-136.245 1538.03,-138.096 1536.91,-131.187"/>
</g>
<!-- Node15 -->
<g id="node15" class="node"><title>Node15</title>
<g id="a_node15"><a xlink:href="_glider_vario_measurement_vector_8cpp.html" target="_top" xlink:title="src/GliderVarioMeasurement\lVector.cpp">
<polygon fill="white" stroke="black" points="1485.5,-67.5 1485.5,-97.5 1625.5,-97.5 1625.5,-67.5 1485.5,-67.5"/>
<text text-anchor="start" x="1493.5" y="-85.5" font-family="Helvetica,sans-Serif" font-size="10.00">src/GliderVarioMeasurement</text>
<text text-anchor="middle" x="1555.5" y="-74.5" font-family="Helvetica,sans-Serif" font-size="10.00">Vector.cpp</text>
</a>
</g>
</g>
<!-- Node14&#45;&gt;Node15 -->
<g id="edge16" class="edge"><title>Node14&#45;&gt;Node15</title>
<path fill="none" stroke="midnightblue" d="M1487.3,-128.734C1502.47,-118.676 1520.54,-106.685 1534.28,-97.5765"/>
<polygon fill="midnightblue" stroke="midnightblue" points="1485.16,-125.952 1478.76,-134.396 1489.03,-131.785 1485.16,-125.952"/>
</g>
<!-- Node16 -->
<g id="node16" class="node"><title>Node16</title>
<g id="a_node16"><a xlink:href="_glider_vario_measurement_vector__test_8cpp.html" target="_top" xlink:title="src/GliderVarioMeasurement\lVector_test.cpp">
<polygon fill="white" stroke="black" points="1643.5,-67.5 1643.5,-97.5 1783.5,-97.5 1783.5,-67.5 1643.5,-67.5"/>
<text text-anchor="start" x="1651.5" y="-85.5" font-family="Helvetica,sans-Serif" font-size="10.00">src/GliderVarioMeasurement</text>
<text text-anchor="middle" x="1713.5" y="-74.5" font-family="Helvetica,sans-Serif" font-size="10.00">Vector_test.cpp</text>
</a>
</g>
</g>
<!-- Node14&#45;&gt;Node16 -->
<g id="edge17" class="edge"><title>Node14&#45;&gt;Node16</title>
<path fill="none" stroke="midnightblue" d="M1522.55,-131.984C1564.36,-121.367 1618.11,-107.72 1657.92,-97.6109"/>
<polygon fill="midnightblue" stroke="midnightblue" points="1521.56,-128.623 1512.73,-134.476 1523.29,-135.407 1521.56,-128.623"/>
</g>
<!-- Node19&#45;&gt;Node7 -->
<g id="edge23" class="edge"><title>Node19&#45;&gt;Node7</title>
<path fill="none" stroke="midnightblue" d="M749.989,-132.928C762.061,-122.179 777.982,-108.002 789.677,-97.589"/>
<polygon fill="midnightblue" stroke="midnightblue" points="747.486,-130.47 742.345,-139.734 752.141,-135.698 747.486,-130.47"/>
</g>
<!-- Node19&#45;&gt;Node8 -->
<g id="edge24" class="edge"><title>Node19&#45;&gt;Node8</title>
<path fill="none" stroke="midnightblue" d="M727.099,-129.841C723.093,-111.77 720.465,-84.5916 734.5,-67 752.784,-44.0829 829.738,-29.766 882.413,-22.4594"/>
<polygon fill="midnightblue" stroke="midnightblue" points="723.764,-130.929 729.635,-139.749 730.546,-129.193 723.764,-130.929"/>
</g>
<!-- Node19&#45;&gt;Node9 -->
<g id="edge25" class="edge"><title>Node19&#45;&gt;Node9</title>
<path fill="none" stroke="midnightblue" d="M709.949,-134.269C689.561,-121.403 660.208,-102.879 643.171,-92.1273"/>
<polygon fill="midnightblue" stroke="midnightblue" points="708.284,-137.357 718.609,-139.734 712.02,-131.437 708.284,-137.357"/>
</g>
<!-- Node20&#45;&gt;Node7 -->
<g id="edge27" class="edge"><title>Node20&#45;&gt;Node7</title>
<path fill="none" stroke="midnightblue" d="M965.273,-131.58C930.19,-121.022 885.56,-107.592 852.392,-97.6109"/>
<polygon fill="midnightblue" stroke="midnightblue" points="964.313,-134.946 974.897,-134.476 966.33,-128.243 964.313,-134.946"/>
</g>
<!-- Node20&#45;&gt;Node8 -->
<g id="edge29" class="edge"><title>Node20&#45;&gt;Node8</title>
<path fill="none" stroke="midnightblue" d="M984.9,-128.84C972.95,-120.754 960.667,-110.357 952.5,-98 937.199,-74.8495 934.154,-40.8764 933.593,-25.117"/>
<polygon fill="midnightblue" stroke="midnightblue" points="983.166,-131.886 993.479,-134.315 986.932,-125.985 983.166,-131.886"/>
</g>
<!-- Node21 -->
<g id="node21" class="node"><title>Node21</title>
<g id="a_node21"><a xlink:href="_glider_vario_transition_matrix__test_8cpp.html" target="_top" xlink:title="src/GliderVarioTransition\lMatrix_test.cpp">
<polygon fill="white" stroke="black" points="1123.5,-67.5 1123.5,-97.5 1247.5,-97.5 1247.5,-67.5 1123.5,-67.5"/>
<text text-anchor="start" x="1131.5" y="-85.5" font-family="Helvetica,sans-Serif" font-size="10.00">src/GliderVarioTransition</text>
<text text-anchor="middle" x="1185.5" y="-74.5" font-family="Helvetica,sans-Serif" font-size="10.00">Matrix_test.cpp</text>
</a>
</g>
</g>
<!-- Node20&#45;&gt;Node21 -->
<g id="edge28" class="edge"><title>Node20&#45;&gt;Node21</title>
<path fill="none" stroke="midnightblue" d="M1066.46,-130.682C1092.76,-120.257 1125.5,-107.281 1149.98,-97.5765"/>
<polygon fill="midnightblue" stroke="midnightblue" points="1065.09,-127.458 1057.09,-134.396 1067.67,-133.965 1065.09,-127.458"/>
</g>
<!-- Node22&#45;&gt;Node8 -->
<g id="edge32" class="edge"><title>Node22&#45;&gt;Node8</title>
<path fill="none" stroke="midnightblue" d="M1250.85,-130.8C1260.87,-112.701 1271.72,-84.7899 1256.5,-67 1222.13,-26.8425 1066.8,-18.387 984.714,-16.7605"/>
<polygon fill="midnightblue" stroke="midnightblue" points="1247.65,-129.336 1245.54,-139.719 1253.66,-132.918 1247.65,-129.336"/>
</g>
<!-- Node22&#45;&gt;Node10 -->
<g id="edge33" class="edge"><title>Node22&#45;&gt;Node10</title>
<path fill="none" stroke="midnightblue" d="M1202.57,-136.847C1161.77,-123.973 1097.03,-103.546 1060.64,-92.0637"/>
<polygon fill="midnightblue" stroke="midnightblue" points="1201.56,-140.197 1212.14,-139.869 1203.66,-133.522 1201.56,-140.197"/>
</g>
<!-- Node23 -->
<g id="node23" class="node"><title>Node23</title>
<g id="a_node23"><a xlink:href="_rot_matrix_conversion__test_8cpp.html" target="_top" xlink:title="src/RotMatrixConversion\l_test.cpp">
<polygon fill="white" stroke="black" points="1304,-67.5 1304,-97.5 1429,-97.5 1429,-67.5 1304,-67.5"/>
<text text-anchor="start" x="1312" y="-85.5" font-family="Helvetica,sans-Serif" font-size="10.00">src/RotMatrixConversion</text>
<text text-anchor="middle" x="1366.5" y="-74.5" font-family="Helvetica,sans-Serif" font-size="10.00">_test.cpp</text>
</a>
</g>
</g>
<!-- Node22&#45;&gt;Node23 -->
<g id="edge34" class="edge"><title>Node22&#45;&gt;Node23</title>
<path fill="none" stroke="midnightblue" d="M1265.5,-135.194C1286.86,-124.261 1317.05,-108.81 1338.85,-97.6516"/>
<polygon fill="midnightblue" stroke="midnightblue" points="1263.67,-132.197 1256.36,-139.869 1266.86,-138.428 1263.67,-132.197"/>
</g>
</g>
</svg>
