<?xml version="1.0" encoding="UTF-8" standalone="no"?>
<!DOCTYPE svg PUBLIC "-//W3C//DTD SVG 1.1//EN"
 "http://www.w3.org/Graphics/SVG/1.1/DTD/svg11.dtd">
<!-- Generated by graphviz version 2.38.0 (20140413.2041)
 -->
<!-- Title: src/GliderVarioTransitionMatrix.h Pages: 1 -->
<svg width="394pt" height="106pt"
 viewBox="0.00 0.00 394.00 106.00" xmlns="http://www.w3.org/2000/svg" xmlns:xlink="http://www.w3.org/1999/xlink">
<g id="graph0" class="graph" transform="scale(1 1) rotate(0) translate(4 102)">
<title>src/GliderVarioTransitionMatrix.h</title>
<polygon fill="white" stroke="none" points="-4,4 -4,-102 390,-102 390,4 -4,4"/>
<!-- Node1 -->
<g id="node1" class="node"><title>Node1</title>
<polygon fill="#bfbfbf" stroke="black" points="142,-67.5 142,-97.5 266,-97.5 266,-67.5 142,-67.5"/>
<text text-anchor="start" x="150" y="-85.5" font-family="Helvetica,sans-Serif" font-size="10.00">src/GliderVarioTransition</text>
<text text-anchor="middle" x="204" y="-74.5" font-family="Helvetica,sans-Serif" font-size="10.00">Matrix.h</text>
</g>
<!-- Node2 -->
<g id="node2" class="node"><title>Node2</title>
<g id="a_node2"><a xlink:href="_glider_vario_transition_matrix_8cpp.html" target="_top" xlink:title="src/GliderVarioTransition\lMatrix.cpp">
<polygon fill="white" stroke="black" points="0,-0.5 0,-30.5 124,-30.5 124,-0.5 0,-0.5"/>
<text text-anchor="start" x="8" y="-18.5" font-family="Helvetica,sans-Serif" font-size="10.00">src/GliderVarioTransition</text>
<text text-anchor="middle" x="62" y="-7.5" font-family="Helvetica,sans-Serif" font-size="10.00">Matrix.cpp</text>
</a>
</g>
</g>
<!-- Node1&#45;&gt;Node2 -->
<g id="edge1" class="edge"><title>Node1&#45;&gt;Node2</title>
<path fill="none" stroke="midnightblue" d="M163.87,-63.1305C141.307,-52.8025 113.579,-40.1103 92.7518,-30.5765"/>
<polygon fill="midnightblue" stroke="midnightblue" points="162.639,-66.4162 173.188,-67.396 165.552,-60.0513 162.639,-66.4162"/>
</g>
<!-- Node3 -->
<g id="node3" class="node"><title>Node3</title>
<g id="a_node3"><a xlink:href="_glider_vario_transition_matrix__test_8cpp.html" target="_top" xlink:title="src/GliderVarioTransition\lMatrix_test.cpp">
<polygon fill="white" stroke="black" points="142,-0.5 142,-30.5 266,-30.5 266,-0.5 142,-0.5"/>
<text text-anchor="start" x="150" y="-18.5" font-family="Helvetica,sans-Serif" font-size="10.00">src/GliderVarioTransition</text>
<text text-anchor="middle" x="204" y="-7.5" font-family="Helvetica,sans-Serif" font-size="10.00">Matrix_test.cpp</text>
</a>
</g>
</g>
<!-- Node1&#45;&gt;Node3 -->
<g id="edge2" class="edge"><title>Node1&#45;&gt;Node3</title>
<path fill="none" stroke="midnightblue" d="M204,-57.1081C204,-48.1539 204,-38.3227 204,-30.5765"/>
<polygon fill="midnightblue" stroke="midnightblue" points="200.5,-57.3959 204,-67.396 207.5,-57.396 200.5,-57.3959"/>
</g>
<!-- Node4 -->
<g id="node4" class="node"><title>Node4</title>
<g id="a_node4"><a xlink:href="open_e_vario_8cpp.html" target="_top" xlink:title="src/openEVario.cpp">
<polygon fill="white" stroke="black" points="284,-6 284,-25 386,-25 386,-6 284,-6"/>
<text text-anchor="middle" x="335" y="-13" font-family="Helvetica,sans-Serif" font-size="10.00">src/openEVario.cpp</text>
</a>
</g>
</g>
<!-- Node1&#45;&gt;Node4 -->
<g id="edge3" class="edge"><title>Node1&#45;&gt;Node4</title>
<path fill="none" stroke="midnightblue" d="M241.682,-62.8029C266.796,-50.3418 298.611,-34.5558 317.855,-25.007"/>
<polygon fill="midnightblue" stroke="midnightblue" points="239.827,-59.8159 232.425,-67.396 242.939,-66.0864 239.827,-59.8159"/>
</g>
</g>
</svg>
