<?xml version="1.0" encoding="UTF-8" standalone="no"?>
<!DOCTYPE svg PUBLIC "-//W3C//DTD SVG 1.1//EN"
 "http://www.w3.org/Graphics/SVG/1.1/DTD/svg11.dtd">
<!-- Generated by graphviz version 2.38.0 (20140413.2041)
 -->
<!-- Title: src/GliderVarioMeasurementVector.h Pages: 1 -->
<svg width="690pt" height="173pt"
 viewBox="0.00 0.00 690.00 173.00" xmlns="http://www.w3.org/2000/svg" xmlns:xlink="http://www.w3.org/1999/xlink">
<g id="graph0" class="graph" transform="scale(1 1) rotate(0) translate(4 169)">
<title>src/GliderVarioMeasurementVector.h</title>
<polygon fill="white" stroke="none" points="-4,4 -4,-169 686,-169 686,4 -4,4"/>
<!-- Node1 -->
<g id="node1" class="node"><title>Node1</title>
<polygon fill="#bfbfbf" stroke="black" points="335,-134.5 335,-164.5 475,-164.5 475,-134.5 335,-134.5"/>
<text text-anchor="start" x="343" y="-152.5" font-family="Helvetica,sans-Serif" font-size="10.00">src/GliderVarioMeasurement</text>
<text text-anchor="middle" x="405" y="-141.5" font-family="Helvetica,sans-Serif" font-size="10.00">Vector.h</text>
</g>
<!-- Node2 -->
<g id="node2" class="node"><title>Node2</title>
<g id="a_node2"><a xlink:href="_glider_vario_measurement_matrix_8h.html" target="_top" xlink:title="src/GliderVarioMeasurement\lMatrix.h">
<polygon fill="white" stroke="black" points="168,-67.5 168,-97.5 308,-97.5 308,-67.5 168,-67.5"/>
<text text-anchor="start" x="176" y="-85.5" font-family="Helvetica,sans-Serif" font-size="10.00">src/GliderVarioMeasurement</text>
<text text-anchor="middle" x="238" y="-74.5" font-family="Helvetica,sans-Serif" font-size="10.00">Matrix.h</text>
</a>
</g>
</g>
<!-- Node1&#45;&gt;Node2 -->
<g id="edge1" class="edge"><title>Node1&#45;&gt;Node2</title>
<path fill="none" stroke="midnightblue" d="M359.22,-130.682C332.437,-120.257 299.098,-107.281 274.166,-97.5765"/>
<polygon fill="midnightblue" stroke="midnightblue" points="358.175,-134.03 368.763,-134.396 360.714,-127.507 358.175,-134.03"/>
</g>
<!-- Node5 -->
<g id="node5" class="node"><title>Node5</title>
<g id="a_node5"><a xlink:href="open_e_vario_8cpp.html" target="_top" xlink:title="src/openEVario.cpp">
<polygon fill="white" stroke="black" points="316,-6 316,-25 418,-25 418,-6 316,-6"/>
<text text-anchor="middle" x="367" y="-13" font-family="Helvetica,sans-Serif" font-size="10.00">src/openEVario.cpp</text>
</a>
</g>
</g>
<!-- Node1&#45;&gt;Node5 -->
<g id="edge7" class="edge"><title>Node1&#45;&gt;Node5</title>
<path fill="none" stroke="midnightblue" d="M388.678,-125.86C383.438,-117.491 378.174,-107.678 375,-98 366.67,-72.6027 366.26,-40.5542 366.63,-25.3204"/>
<polygon fill="midnightblue" stroke="midnightblue" points="385.821,-127.886 394.254,-134.301 391.662,-124.028 385.821,-127.886"/>
</g>
<!-- Node6 -->
<g id="node6" class="node"><title>Node6</title>
<g id="a_node6"><a xlink:href="_glider_vario_measurement_vector_8cpp.html" target="_top" xlink:title="src/GliderVarioMeasurement\lVector.cpp">
<polygon fill="white" stroke="black" points="384,-67.5 384,-97.5 524,-97.5 524,-67.5 384,-67.5"/>
<text text-anchor="start" x="392" y="-85.5" font-family="Helvetica,sans-Serif" font-size="10.00">src/GliderVarioMeasurement</text>
<text text-anchor="middle" x="454" y="-74.5" font-family="Helvetica,sans-Serif" font-size="10.00">Vector.cpp</text>
</a>
</g>
</g>
<!-- Node1&#45;&gt;Node6 -->
<g id="edge5" class="edge"><title>Node1&#45;&gt;Node6</title>
<path fill="none" stroke="midnightblue" d="M421.843,-126.157C428.988,-116.679 437.1,-105.919 443.388,-97.5765"/>
<polygon fill="midnightblue" stroke="midnightblue" points="418.857,-124.304 415.632,-134.396 424.447,-128.518 418.857,-124.304"/>
</g>
<!-- Node7 -->
<g id="node7" class="node"><title>Node7</title>
<g id="a_node7"><a xlink:href="_glider_vario_measurement_vector__test_8cpp.html" target="_top" xlink:title="src/GliderVarioMeasurement\lVector_test.cpp">
<polygon fill="white" stroke="black" points="542,-67.5 542,-97.5 682,-97.5 682,-67.5 542,-67.5"/>
<text text-anchor="start" x="550" y="-85.5" font-family="Helvetica,sans-Serif" font-size="10.00">src/GliderVarioMeasurement</text>
<text text-anchor="middle" x="612" y="-74.5" font-family="Helvetica,sans-Serif" font-size="10.00">Vector_test.cpp</text>
</a>
</g>
</g>
<!-- Node1&#45;&gt;Node7 -->
<g id="edge6" class="edge"><title>Node1&#45;&gt;Node7</title>
<path fill="none" stroke="midnightblue" d="M459.316,-131.444C492.871,-120.908 535.412,-107.549 567.062,-97.6109"/>
<polygon fill="midnightblue" stroke="midnightblue" points="458.153,-128.141 449.661,-134.476 460.25,-134.819 458.153,-128.141"/>
</g>
<!-- Node3 -->
<g id="node3" class="node"><title>Node3</title>
<g id="a_node3"><a xlink:href="_glider_vario_measurement_matrix_8cpp.html" target="_top" xlink:title="src/GliderVarioMeasurement\lMatrix.cpp">
<polygon fill="white" stroke="black" points="0,-0.5 0,-30.5 140,-30.5 140,-0.5 0,-0.5"/>
<text text-anchor="start" x="8" y="-18.5" font-family="Helvetica,sans-Serif" font-size="10.00">src/GliderVarioMeasurement</text>
<text text-anchor="middle" x="70" y="-7.5" font-family="Helvetica,sans-Serif" font-size="10.00">Matrix.cpp</text>
</a>
</g>
</g>
<!-- Node2&#45;&gt;Node3 -->
<g id="edge2" class="edge"><title>Node2&#45;&gt;Node3</title>
<path fill="none" stroke="midnightblue" d="M191.946,-63.6815C165.002,-53.2568 131.464,-40.2805 106.382,-30.5765"/>
<polygon fill="midnightblue" stroke="midnightblue" points="190.957,-67.0517 201.547,-67.396 193.483,-60.5233 190.957,-67.0517"/>
</g>
<!-- Node4 -->
<g id="node4" class="node"><title>Node4</title>
<g id="a_node4"><a xlink:href="_glider_vario_measurement_matrix__test_8cpp.html" target="_top" xlink:title="src/GliderVarioMeasurement\lMatrix_test.cpp">
<polygon fill="white" stroke="black" points="158,-0.5 158,-30.5 298,-30.5 298,-0.5 158,-0.5"/>
<text text-anchor="start" x="166" y="-18.5" font-family="Helvetica,sans-Serif" font-size="10.00">src/GliderVarioMeasurement</text>
<text text-anchor="middle" x="228" y="-7.5" font-family="Helvetica,sans-Serif" font-size="10.00">Matrix_test.cpp</text>
</a>
</g>
</g>
<!-- Node2&#45;&gt;Node4 -->
<g id="edge3" class="edge"><title>Node2&#45;&gt;Node4</title>
<path fill="none" stroke="midnightblue" d="M234.293,-57.4029C232.903,-48.3703 231.37,-38.4078 230.166,-30.5765"/>
<polygon fill="midnightblue" stroke="midnightblue" points="230.85,-58.0445 235.83,-67.396 237.769,-56.98 230.85,-58.0445"/>
</g>
<!-- Node2&#45;&gt;Node5 -->
<g id="edge4" class="edge"><title>Node2&#45;&gt;Node5</title>
<path fill="none" stroke="midnightblue" d="M275.107,-62.8029C299.837,-50.3418 331.166,-34.5558 350.117,-25.007"/>
<polygon fill="midnightblue" stroke="midnightblue" points="273.347,-59.7705 265.991,-67.396 276.496,-66.0217 273.347,-59.7705"/>
</g>
</g>
</svg>
