<?xml version="1.0" encoding="UTF-8" standalone="no"?>
<!DOCTYPE svg PUBLIC "-//W3C//DTD SVG 1.1//EN"
 "http://www.w3.org/Graphics/SVG/1.1/DTD/svg11.dtd">
<!-- Generated by graphviz version 2.38.0 (20140413.2041)
 -->
<!-- Title: src/GliderVarioStatus.h Pages: 1 -->
<svg width="1912pt" height="229pt"
 viewBox="0.00 0.00 1911.50 229.00" xmlns="http://www.w3.org/2000/svg" xmlns:xlink="http://www.w3.org/1999/xlink">
<g id="graph0" class="graph" transform="scale(1 1) rotate(0) translate(4 225)">
<title>src/GliderVarioStatus.h</title>
<polygon fill="white" stroke="none" points="-4,4 -4,-225 1907.5,-225 1907.5,4 -4,4"/>
<!-- Node1 -->
<g id="node1" class="node"><title>Node1</title>
<polygon fill="#bfbfbf" stroke="black" points="1065.5,-201.5 1065.5,-220.5 1183.5,-220.5 1183.5,-201.5 1065.5,-201.5"/>
<text text-anchor="middle" x="1124.5" y="-208.5" font-family="Helvetica,sans-Serif" font-size="10.00">src/GliderVarioStatus.h</text>
</g>
<!-- Node2 -->
<g id="node2" class="node"><title>Node2</title>
<g id="a_node2"><a xlink:href="_fast_math_8h.html" target="_top" xlink:title="src/FastMath.h">
<polygon fill="white" stroke="black" points="459,-140 459,-159 542,-159 542,-140 459,-140"/>
<text text-anchor="middle" x="500.5" y="-147" font-family="Helvetica,sans-Serif" font-size="10.00">src/FastMath.h</text>
</a>
</g>
</g>
<!-- Node1&#45;&gt;Node2 -->
<g id="edge1" class="edge"><title>Node1&#45;&gt;Node2</title>
<path fill="none" stroke="midnightblue" d="M1054.98,-203.371C924.764,-190.955 647.742,-164.54 542.369,-154.492"/>
<polygon fill="midnightblue" stroke="midnightblue" points="1054.95,-206.884 1065.23,-204.349 1055.61,-199.915 1054.95,-206.884"/>
</g>
<!-- Node7 -->
<g id="node7" class="node"><title>Node7</title>
<g id="a_node7"><a xlink:href="_glider_vario_transition_matrix_8cpp.html" target="_top" xlink:title="src/GliderVarioTransition\lMatrix.cpp">
<polygon fill="white" stroke="black" points="743.5,-67.5 743.5,-97.5 867.5,-97.5 867.5,-67.5 743.5,-67.5"/>
<text text-anchor="start" x="751.5" y="-85.5" font-family="Helvetica,sans-Serif" font-size="10.00">src/GliderVarioTransition</text>
<text text-anchor="middle" x="805.5" y="-74.5" font-family="Helvetica,sans-Serif" font-size="10.00">Matrix.cpp</text>
</a>
</g>
</g>
<!-- Node1&#45;&gt;Node7 -->
<g id="edge20" class="edge"><title>Node1&#45;&gt;Node7</title>
<path fill="none" stroke="midnightblue" d="M1055.32,-203.394C990.822,-196.242 900.109,-183.343 869.5,-165 842.34,-148.724 822.275,-116.306 812.387,-97.6342"/>
<polygon fill="midnightblue" stroke="midnightblue" points="1055.11,-206.892 1065.43,-204.492 1055.87,-199.933 1055.11,-206.892"/>
</g>
<!-- Node8 -->
<g id="node8" class="node"><title>Node8</title>
<g id="a_node8"><a xlink:href="open_e_vario_8cpp.html" target="_top" xlink:title="src/openEVario.cpp">
<polygon fill="white" stroke="black" points="934.5,-6 934.5,-25 1036.5,-25 1036.5,-6 934.5,-6"/>
<text text-anchor="middle" x="985.5" y="-13" font-family="Helvetica,sans-Serif" font-size="10.00">src/openEVario.cpp</text>
</a>
</g>
</g>
<!-- Node1&#45;&gt;Node8 -->
<g id="edge29" class="edge"><title>Node1&#45;&gt;Node8</title>
<path fill="none" stroke="midnightblue" d="M1111.94,-193.071C1106.18,-184.856 1099.53,-174.687 1094.5,-165 1072.97,-123.541 1085.19,-103.87 1056.5,-67 1042.01,-48.3762 1018.81,-33.6976 1002.9,-25.0717"/>
<polygon fill="midnightblue" stroke="midnightblue" points="1109.24,-195.319 1117.93,-201.386 1114.92,-191.227 1109.24,-195.319"/>
</g>
<!-- Node10 -->
<g id="node10" class="node"><title>Node10</title>
<g id="a_node10"><a xlink:href="_glider_vario_measurement_matrix_8h.html" target="_top" xlink:title="src/GliderVarioMeasurement\lMatrix.h">
<polygon fill="white" stroke="black" points="1457.5,-67.5 1457.5,-97.5 1597.5,-97.5 1597.5,-67.5 1457.5,-67.5"/>
<text text-anchor="start" x="1465.5" y="-85.5" font-family="Helvetica,sans-Serif" font-size="10.00">src/GliderVarioMeasurement</text>
<text text-anchor="middle" x="1527.5" y="-74.5" font-family="Helvetica,sans-Serif" font-size="10.00">Matrix.h</text>
</a>
</g>
</g>
<!-- Node1&#45;&gt;Node10 -->
<g id="edge9" class="edge"><title>Node1&#45;&gt;Node10</title>
<path fill="none" stroke="midnightblue" d="M1168.51,-198.642C1193.98,-191.079 1226.11,-179.802 1252.5,-165 1271.51,-154.337 1270.85,-143.424 1290.5,-134 1305.56,-126.781 1393.08,-109.096 1457.4,-96.7008"/>
<polygon fill="midnightblue" stroke="midnightblue" points="1167.39,-195.323 1158.75,-201.457 1169.33,-202.049 1167.39,-195.323"/>
</g>
<!-- Node13 -->
<g id="node13" class="node"><title>Node13</title>
<g id="a_node13"><a xlink:href="_glider_vario_measurement_vector_8h.html" target="_top" xlink:title="src/GliderVarioMeasurement\lVector.h">
<polygon fill="white" stroke="black" points="1103.5,-134.5 1103.5,-164.5 1243.5,-164.5 1243.5,-134.5 1103.5,-134.5"/>
<text text-anchor="start" x="1111.5" y="-152.5" font-family="Helvetica,sans-Serif" font-size="10.00">src/GliderVarioMeasurement</text>
<text text-anchor="middle" x="1173.5" y="-141.5" font-family="Helvetica,sans-Serif" font-size="10.00">Vector.h</text>
</a>
</g>
</g>
<!-- Node1&#45;&gt;Node13 -->
<g id="edge13" class="edge"><title>Node1&#45;&gt;Node13</title>
<path fill="none" stroke="midnightblue" d="M1138.06,-193.53C1145.57,-184.417 1154.79,-173.214 1161.95,-164.523"/>
<polygon fill="midnightblue" stroke="midnightblue" points="1135.18,-191.531 1131.52,-201.475 1140.58,-195.981 1135.18,-191.531"/>
</g>
<!-- Node16 -->
<g id="node16" class="node"><title>Node16</title>
<g id="a_node16"><a xlink:href="_glider_vario_status_8cpp.html" target="_top" xlink:title="src/GliderVarioStatus.cpp">
<polygon fill="white" stroke="black" points="1299.5,-140 1299.5,-159 1427.5,-159 1427.5,-140 1299.5,-140"/>
<text text-anchor="middle" x="1363.5" y="-147" font-family="Helvetica,sans-Serif" font-size="10.00">src/GliderVarioStatus.cpp</text>
</a>
</g>
</g>
<!-- Node1&#45;&gt;Node16 -->
<g id="edge18" class="edge"><title>Node1&#45;&gt;Node16</title>
<path fill="none" stroke="midnightblue" d="M1168.52,-199.041C1214.92,-187.49 1287.02,-169.539 1329.32,-159.009"/>
<polygon fill="midnightblue" stroke="midnightblue" points="1167.6,-195.663 1158.74,-201.475 1169.29,-202.456 1167.6,-195.663"/>
</g>
<!-- Node17 -->
<g id="node17" class="node"><title>Node17</title>
<g id="a_node17"><a xlink:href="_glider_vario_status__test_8cpp.html" target="_top" xlink:title="src/GliderVarioStatus\l_test.cpp">
<polygon fill="white" stroke="black" points="1445.5,-134.5 1445.5,-164.5 1555.5,-164.5 1555.5,-134.5 1445.5,-134.5"/>
<text text-anchor="start" x="1453.5" y="-152.5" font-family="Helvetica,sans-Serif" font-size="10.00">src/GliderVarioStatus</text>
<text text-anchor="middle" x="1500.5" y="-141.5" font-family="Helvetica,sans-Serif" font-size="10.00">_test.cpp</text>
</a>
</g>
</g>
<!-- Node1&#45;&gt;Node17 -->
<g id="edge19" class="edge"><title>Node1&#45;&gt;Node17</title>
<path fill="none" stroke="midnightblue" d="M1193.95,-201.593C1257.35,-193.536 1353.54,-180.356 1436.5,-165 1439.41,-164.461 1442.39,-163.882 1445.4,-163.276"/>
<polygon fill="midnightblue" stroke="midnightblue" points="1193.15,-198.165 1183.67,-202.89 1194.03,-205.11 1193.15,-198.165"/>
</g>
<!-- Node18 -->
<g id="node18" class="node"><title>Node18</title>
<g id="a_node18"><a xlink:href="_rotation_matrix_8h.html" target="_top" xlink:title="src/RotationMatrix.h">
<polygon fill="white" stroke="black" points="667,-140 667,-159 772,-159 772,-140 667,-140"/>
<text text-anchor="middle" x="719.5" y="-147" font-family="Helvetica,sans-Serif" font-size="10.00">src/RotationMatrix.h</text>
</a>
</g>
</g>
<!-- Node1&#45;&gt;Node18 -->
<g id="edge21" class="edge"><title>Node1&#45;&gt;Node18</title>
<path fill="none" stroke="midnightblue" d="M1055.29,-201.966C987.8,-193.821 882.338,-180.268 791.5,-165 781.063,-163.246 769.825,-161.105 759.403,-159.012"/>
<polygon fill="midnightblue" stroke="midnightblue" points="1055.03,-205.46 1065.38,-203.177 1055.87,-198.51 1055.03,-205.46"/>
</g>
<!-- Node19 -->
<g id="node19" class="node"><title>Node19</title>
<g id="a_node19"><a xlink:href="_glider_vario_transition_matrix_8h.html" target="_top" xlink:title="src/GliderVarioTransition\lMatrix.h">
<polygon fill="white" stroke="black" points="878.5,-134.5 878.5,-164.5 1002.5,-164.5 1002.5,-134.5 878.5,-134.5"/>
<text text-anchor="start" x="886.5" y="-152.5" font-family="Helvetica,sans-Serif" font-size="10.00">src/GliderVarioTransition</text>
<text text-anchor="middle" x="940.5" y="-141.5" font-family="Helvetica,sans-Serif" font-size="10.00">Matrix.h</text>
</a>
</g>
</g>
<!-- Node1&#45;&gt;Node19 -->
<g id="edge25" class="edge"><title>Node1&#45;&gt;Node19</title>
<path fill="none" stroke="midnightblue" d="M1088.49,-198.357C1058.51,-188.662 1015.73,-174.826 983.865,-164.523"/>
<polygon fill="midnightblue" stroke="midnightblue" points="1087.55,-201.728 1098.14,-201.475 1089.7,-195.068 1087.55,-201.728"/>
</g>
<!-- Node21 -->
<g id="node21" class="node"><title>Node21</title>
<g id="a_node21"><a xlink:href="_rot_matrix_conversion_8h.html" target="_top" xlink:title="src/RotMatrixConversion.h">
<polygon fill="white" stroke="black" points="1611.5,-140 1611.5,-159 1745.5,-159 1745.5,-140 1611.5,-140"/>
<text text-anchor="middle" x="1678.5" y="-147" font-family="Helvetica,sans-Serif" font-size="10.00">src/RotMatrixConversion.h</text>
</a>
</g>
</g>
<!-- Node1&#45;&gt;Node21 -->
<g id="edge30" class="edge"><title>Node1&#45;&gt;Node21</title>
<path fill="none" stroke="midnightblue" d="M1193.6,-203.463C1280.3,-195.139 1433.51,-180.026 1564.5,-165 1580.46,-163.17 1597.65,-161.057 1613.72,-159.02"/>
<polygon fill="midnightblue" stroke="midnightblue" points="1193.24,-199.981 1183.62,-204.419 1193.91,-206.95 1193.24,-199.981"/>
</g>
<!-- Node3 -->
<g id="node3" class="node"><title>Node3</title>
<g id="a_node3"><a xlink:href="_fast_math_8cpp.html" target="_top" xlink:title="src/FastMath.cpp">
<polygon fill="white" stroke="black" points="289,-73 289,-92 382,-92 382,-73 289,-73"/>
<text text-anchor="middle" x="335.5" y="-80" font-family="Helvetica,sans-Serif" font-size="10.00">src/FastMath.cpp</text>
</a>
</g>
</g>
<!-- Node2&#45;&gt;Node3 -->
<g id="edge2" class="edge"><title>Node2&#45;&gt;Node3</title>
<path fill="none" stroke="midnightblue" d="M469.034,-136.104C436.273,-123.198 385.83,-103.327 357.239,-92.0637"/>
<polygon fill="midnightblue" stroke="midnightblue" points="468.002,-139.46 478.589,-139.869 470.568,-132.947 468.002,-139.46"/>
</g>
<!-- Node4 -->
<g id="node4" class="node"><title>Node4</title>
<g id="a_node4"><a xlink:href="_fast_math__test_8cpp.html" target="_top" xlink:title="src/FastMath_test.cpp">
<polygon fill="white" stroke="black" points="400,-73 400,-92 515,-92 515,-73 400,-73"/>
<text text-anchor="middle" x="457.5" y="-80" font-family="Helvetica,sans-Serif" font-size="10.00">src/FastMath_test.cpp</text>
</a>
</g>
</g>
<!-- Node2&#45;&gt;Node4 -->
<g id="edge3" class="edge"><title>Node2&#45;&gt;Node4</title>
<path fill="none" stroke="midnightblue" d="M488.946,-131.035C480.621,-118.45 469.743,-102.007 463.207,-92.1273"/>
<polygon fill="midnightblue" stroke="midnightblue" points="486.264,-133.325 494.701,-139.734 492.103,-129.463 486.264,-133.325"/>
</g>
<!-- Node5 -->
<g id="node5" class="node"><title>Node5</title>
<g id="a_node5"><a xlink:href="_fast_math_sine_table_8cpp.html" target="_top" xlink:title="src/FastMathSineTable.cpp">
<polygon fill="white" stroke="black" points="0,-73 0,-92 137,-92 137,-73 0,-73"/>
<text text-anchor="middle" x="68.5" y="-80" font-family="Helvetica,sans-Serif" font-size="10.00">src/FastMathSineTable.cpp</text>
</a>
</g>
</g>
<!-- Node2&#45;&gt;Node5 -->
<g id="edge4" class="edge"><title>Node2&#45;&gt;Node5</title>
<path fill="none" stroke="midnightblue" d="M448.823,-141.822C379.788,-132.741 253.715,-115.605 146.5,-98 135.491,-96.1923 123.639,-94.0768 112.581,-92.0294"/>
<polygon fill="midnightblue" stroke="midnightblue" points="448.624,-145.325 458.994,-143.155 449.534,-138.385 448.624,-145.325"/>
</g>
<!-- Node6 -->
<g id="node6" class="node"><title>Node6</title>
<g id="a_node6"><a xlink:href="gen_sine_tables_8cpp.html" target="_top" xlink:title="src/genSineTables.cpp">
<polygon fill="white" stroke="black" points="155.5,-73 155.5,-92 271.5,-92 271.5,-73 155.5,-73"/>
<text text-anchor="middle" x="213.5" y="-80" font-family="Helvetica,sans-Serif" font-size="10.00">src/genSineTables.cpp</text>
</a>
</g>
</g>
<!-- Node2&#45;&gt;Node6 -->
<g id="edge5" class="edge"><title>Node2&#45;&gt;Node6</title>
<path fill="none" stroke="midnightblue" d="M452.918,-137.724C396.405,-124.924 303.28,-103.833 251.399,-92.0834"/>
<polygon fill="midnightblue" stroke="midnightblue" points="452.159,-141.14 462.685,-139.936 453.705,-134.313 452.159,-141.14"/>
</g>
<!-- Node2&#45;&gt;Node7 -->
<g id="edge6" class="edge"><title>Node2&#45;&gt;Node7</title>
<path fill="none" stroke="midnightblue" d="M550.484,-137.848C603.195,-126.614 686.338,-108.895 743.265,-96.7633"/>
<polygon fill="midnightblue" stroke="midnightblue" points="549.738,-134.428 540.687,-139.936 551.197,-141.274 549.738,-134.428"/>
</g>
<!-- Node2&#45;&gt;Node8 -->
<g id="edge7" class="edge"><title>Node2&#45;&gt;Node8</title>
<path fill="none" stroke="midnightblue" d="M508.729,-130.551C518.577,-111.318 536.993,-81.5922 562.5,-67 624.851,-31.3301 836.126,-20.7162 934.422,-17.6711"/>
<polygon fill="midnightblue" stroke="midnightblue" points="505.479,-129.231 504.258,-139.755 511.775,-132.29 505.479,-129.231"/>
</g>
<!-- Node9 -->
<g id="node9" class="node"><title>Node9</title>
<g id="a_node9"><a xlink:href="_rotation_matrix_8cpp.html" target="_top" xlink:title="src/RotationMatrix.cpp">
<polygon fill="white" stroke="black" points="571.5,-73 571.5,-92 687.5,-92 687.5,-73 571.5,-73"/>
<text text-anchor="middle" x="629.5" y="-80" font-family="Helvetica,sans-Serif" font-size="10.00">src/RotationMatrix.cpp</text>
</a>
</g>
</g>
<!-- Node2&#45;&gt;Node9 -->
<g id="edge8" class="edge"><title>Node2&#45;&gt;Node9</title>
<path fill="none" stroke="midnightblue" d="M526.749,-135.274C552.299,-122.4 590.386,-103.209 612.299,-92.1672"/>
<polygon fill="midnightblue" stroke="midnightblue" points="524.986,-132.243 517.63,-139.869 528.136,-138.494 524.986,-132.243"/>
</g>
<!-- Node10&#45;&gt;Node8 -->
<g id="edge12" class="edge"><title>Node10&#45;&gt;Node8</title>
<path fill="none" stroke="midnightblue" d="M1447.13,-66.8656C1291.91,-44.5087 1120.39,-28.243 1036.7,-20.8548"/>
<polygon fill="midnightblue" stroke="midnightblue" points="1446.93,-70.3732 1457.33,-68.347 1447.94,-63.4459 1446.93,-70.3732"/>
</g>
<!-- Node11 -->
<g id="node11" class="node"><title>Node11</title>
<g id="a_node11"><a xlink:href="_glider_vario_measurement_matrix_8cpp.html" target="_top" xlink:title="src/GliderVarioMeasurement\lMatrix.cpp">
<polygon fill="white" stroke="black" points="1536.5,-0.5 1536.5,-30.5 1676.5,-30.5 1676.5,-0.5 1536.5,-0.5"/>
<text text-anchor="start" x="1544.5" y="-18.5" font-family="Helvetica,sans-Serif" font-size="10.00">src/GliderVarioMeasurement</text>
<text text-anchor="middle" x="1606.5" y="-7.5" font-family="Helvetica,sans-Serif" font-size="10.00">Matrix.cpp</text>
</a>
</g>
</g>
<!-- Node10&#45;&gt;Node11 -->
<g id="edge10" class="edge"><title>Node10&#45;&gt;Node11</title>
<path fill="none" stroke="midnightblue" d="M1552.56,-60.8832C1564.56,-51.0054 1578.63,-39.4293 1589.39,-30.5765"/>
<polygon fill="midnightblue" stroke="midnightblue" points="1550.14,-58.3395 1544.64,-67.396 1554.59,-63.745 1550.14,-58.3395"/>
</g>
<!-- Node12 -->
<g id="node12" class="node"><title>Node12</title>
<g id="a_node12"><a xlink:href="_glider_vario_measurement_matrix__test_8cpp.html" target="_top" xlink:title="src/GliderVarioMeasurement\lMatrix_test.cpp">
<polygon fill="white" stroke="black" points="1378.5,-0.5 1378.5,-30.5 1518.5,-30.5 1518.5,-0.5 1378.5,-0.5"/>
<text text-anchor="start" x="1386.5" y="-18.5" font-family="Helvetica,sans-Serif" font-size="10.00">src/GliderVarioMeasurement</text>
<text text-anchor="middle" x="1448.5" y="-7.5" font-family="Helvetica,sans-Serif" font-size="10.00">Matrix_test.cpp</text>
</a>
</g>
</g>
<!-- Node10&#45;&gt;Node12 -->
<g id="edge11" class="edge"><title>Node10&#45;&gt;Node12</title>
<path fill="none" stroke="midnightblue" d="M1502.44,-60.8832C1490.44,-51.0054 1476.37,-39.4293 1465.61,-30.5765"/>
<polygon fill="midnightblue" stroke="midnightblue" points="1500.41,-63.745 1510.36,-67.396 1504.86,-58.3395 1500.41,-63.745"/>
</g>
<!-- Node13&#45;&gt;Node8 -->
<g id="edge17" class="edge"><title>Node13&#45;&gt;Node8</title>
<path fill="none" stroke="midnightblue" d="M1154.79,-126.849C1138.73,-109.184 1114.32,-84.3912 1089.5,-67 1063.53,-48.8022 1030,-33.8308 1008.14,-25.0352"/>
<polygon fill="midnightblue" stroke="midnightblue" points="1152.27,-129.288 1161.55,-134.412 1157.49,-124.623 1152.27,-129.288"/>
</g>
<!-- Node13&#45;&gt;Node10 -->
<g id="edge14" class="edge"><title>Node13&#45;&gt;Node10</title>
<path fill="none" stroke="midnightblue" d="M1253.88,-133.741C1315.14,-122.492 1398.67,-107.155 1457.27,-96.3952"/>
<polygon fill="midnightblue" stroke="midnightblue" points="1253.07,-130.332 1243.86,-135.58 1254.33,-137.217 1253.07,-130.332"/>
</g>
<!-- Node14 -->
<g id="node14" class="node"><title>Node14</title>
<g id="a_node14"><a xlink:href="_glider_vario_measurement_vector_8cpp.html" target="_top" xlink:title="src/GliderVarioMeasurement\lVector.cpp">
<polygon fill="white" stroke="black" points="1299.5,-67.5 1299.5,-97.5 1439.5,-97.5 1439.5,-67.5 1299.5,-67.5"/>
<text text-anchor="start" x="1307.5" y="-85.5" font-family="Helvetica,sans-Serif" font-size="10.00">src/GliderVarioMeasurement</text>
<text text-anchor="middle" x="1369.5" y="-74.5" font-family="Helvetica,sans-Serif" font-size="10.00">Vector.cpp</text>
</a>
</g>
</g>
<!-- Node13&#45;&gt;Node14 -->
<g id="edge15" class="edge"><title>Node13&#45;&gt;Node14</title>
<path fill="none" stroke="midnightblue" d="M1225.58,-131.228C1257.29,-120.713 1297.28,-107.451 1327.05,-97.5765"/>
<polygon fill="midnightblue" stroke="midnightblue" points="1224.42,-127.926 1216.03,-134.396 1226.62,-134.57 1224.42,-127.926"/>
</g>
<!-- Node15 -->
<g id="node15" class="node"><title>Node15</title>
<g id="a_node15"><a xlink:href="_glider_vario_measurement_vector__test_8cpp.html" target="_top" xlink:title="src/GliderVarioMeasurement\lVector_test.cpp">
<polygon fill="white" stroke="black" points="1141.5,-67.5 1141.5,-97.5 1281.5,-97.5 1281.5,-67.5 1141.5,-67.5"/>
<text text-anchor="start" x="1149.5" y="-85.5" font-family="Helvetica,sans-Serif" font-size="10.00">src/GliderVarioMeasurement</text>
<text text-anchor="middle" x="1211.5" y="-74.5" font-family="Helvetica,sans-Serif" font-size="10.00">Vector_test.cpp</text>
</a>
</g>
</g>
<!-- Node13&#45;&gt;Node15 -->
<g id="edge16" class="edge"><title>Node13&#45;&gt;Node15</title>
<path fill="none" stroke="midnightblue" d="M1186.9,-125.576C1192.36,-116.241 1198.49,-105.748 1203.27,-97.5765"/>
<polygon fill="midnightblue" stroke="midnightblue" points="1183.77,-123.997 1181.75,-134.396 1189.81,-127.529 1183.77,-123.997"/>
</g>
<!-- Node18&#45;&gt;Node7 -->
<g id="edge22" class="edge"><title>Node18&#45;&gt;Node7</title>
<path fill="none" stroke="midnightblue" d="M739.288,-133.544C753.602,-122.725 772.817,-108.203 786.859,-97.589"/>
<polygon fill="midnightblue" stroke="midnightblue" points="736.966,-130.912 731.098,-139.734 741.186,-136.496 736.966,-130.912"/>
</g>
<!-- Node18&#45;&gt;Node8 -->
<g id="edge23" class="edge"><title>Node18&#45;&gt;Node8</title>
<path fill="none" stroke="midnightblue" d="M717.447,-129.863C716.519,-111.372 718.292,-83.4783 734.5,-67 761.812,-39.2322 869.358,-25.8163 934.487,-20.1155"/>
<polygon fill="midnightblue" stroke="midnightblue" points="713.971,-130.292 718.269,-139.976 720.948,-129.725 713.971,-130.292"/>
</g>
<!-- Node18&#45;&gt;Node9 -->
<g id="edge24" class="edge"><title>Node18&#45;&gt;Node9</title>
<path fill="none" stroke="midnightblue" d="M698.825,-133.568C681.06,-120.738 656.064,-102.685 641.445,-92.1273"/>
<polygon fill="midnightblue" stroke="midnightblue" points="697.206,-136.716 707.362,-139.734 701.305,-131.041 697.206,-136.716"/>
</g>
<!-- Node19&#45;&gt;Node7 -->
<g id="edge26" class="edge"><title>Node19&#45;&gt;Node7</title>
<path fill="none" stroke="midnightblue" d="M902.06,-129.992C880.662,-119.689 854.448,-107.068 834.736,-97.5765"/>
<polygon fill="midnightblue" stroke="midnightblue" points="900.679,-133.211 911.207,-134.396 903.715,-126.904 900.679,-133.211"/>
</g>
<!-- Node19&#45;&gt;Node8 -->
<g id="edge28" class="edge"><title>Node19&#45;&gt;Node8</title>
<path fill="none" stroke="midnightblue" d="M923.997,-125.769C913.964,-108.961 904.791,-85.8209 914.5,-67 924.833,-46.97 947.19,-33.1488 964.073,-25.0943"/>
<polygon fill="midnightblue" stroke="midnightblue" points="921.19,-127.874 929.545,-134.388 927.076,-124.085 921.19,-127.874"/>
</g>
<!-- Node20 -->
<g id="node20" class="node"><title>Node20</title>
<g id="a_node20"><a xlink:href="_glider_vario_transition_matrix__test_8cpp.html" target="_top" xlink:title="src/GliderVarioTransition\lMatrix_test.cpp">
<polygon fill="white" stroke="black" points="923.5,-67.5 923.5,-97.5 1047.5,-97.5 1047.5,-67.5 923.5,-67.5"/>
<text text-anchor="start" x="931.5" y="-85.5" font-family="Helvetica,sans-Serif" font-size="10.00">src/GliderVarioTransition</text>
<text text-anchor="middle" x="985.5" y="-74.5" font-family="Helvetica,sans-Serif" font-size="10.00">Matrix_test.cpp</text>
</a>
</g>
</g>
<!-- Node19&#45;&gt;Node20 -->
<g id="edge27" class="edge"><title>Node19&#45;&gt;Node20</title>
<path fill="none" stroke="midnightblue" d="M955.968,-126.157C962.53,-116.679 969.979,-105.919 975.755,-97.5765"/>
<polygon fill="midnightblue" stroke="midnightblue" points="953.079,-124.182 950.264,-134.396 958.834,-128.166 953.079,-124.182"/>
</g>
<!-- Node22 -->
<g id="node22" class="node"><title>Node22</title>
<g id="a_node22"><a xlink:href="_rot_matrix_conversion_8cpp.html" target="_top" xlink:title="src/RotMatrixConversion.cpp">
<polygon fill="white" stroke="black" points="1759.5,-73 1759.5,-92 1903.5,-92 1903.5,-73 1759.5,-73"/>
<text text-anchor="middle" x="1831.5" y="-80" font-family="Helvetica,sans-Serif" font-size="10.00">src/RotMatrixConversion.cpp</text>
</a>
</g>
</g>
<!-- Node21&#45;&gt;Node22 -->
<g id="edge31" class="edge"><title>Node21&#45;&gt;Node22</title>
<path fill="none" stroke="midnightblue" d="M1708.04,-135.948C1738.34,-123.079 1784.65,-103.403 1811.1,-92.1672"/>
<polygon fill="midnightblue" stroke="midnightblue" points="1706.65,-132.737 1698.82,-139.869 1709.39,-139.18 1706.65,-132.737"/>
</g>
<!-- Node23 -->
<g id="node23" class="node"><title>Node23</title>
<g id="a_node23"><a xlink:href="_rot_matrix_conversion__test_8cpp.html" target="_top" xlink:title="src/RotMatrixConversion\l_test.cpp">
<polygon fill="white" stroke="black" points="1616,-67.5 1616,-97.5 1741,-97.5 1741,-67.5 1616,-67.5"/>
<text text-anchor="start" x="1624" y="-85.5" font-family="Helvetica,sans-Serif" font-size="10.00">src/RotMatrixConversion</text>
<text text-anchor="middle" x="1678.5" y="-74.5" font-family="Helvetica,sans-Serif" font-size="10.00">_test.cpp</text>
</a>
</g>
</g>
<!-- Node21&#45;&gt;Node23 -->
<g id="edge32" class="edge"><title>Node21&#45;&gt;Node23</title>
<path fill="none" stroke="midnightblue" d="M1678.5,-129.411C1678.5,-119.222 1678.5,-106.901 1678.5,-97.589"/>
<polygon fill="midnightblue" stroke="midnightblue" points="1675,-129.734 1678.5,-139.734 1682,-129.734 1675,-129.734"/>
</g>
</g>
</svg>
