<?xml version="1.0" encoding="UTF-8" standalone="no"?>
<!DOCTYPE svg PUBLIC "-//W3C//DTD SVG 1.1//EN"
 "http://www.w3.org/Graphics/SVG/1.1/DTD/svg11.dtd">
<!-- Generated by graphviz version 2.38.0 (20140413.2041)
 -->
<!-- Title: src/MeasureMatrix.h Pages: 1 -->
<svg width="280pt" height="84pt"
 viewBox="0.00 0.00 280.00 84.00" xmlns="http://www.w3.org/2000/svg" xmlns:xlink="http://www.w3.org/1999/xlink">
<g id="graph0" class="graph" transform="scale(1 1) rotate(0) translate(4 80)">
<title>src/MeasureMatrix.h</title>
<polygon fill="white" stroke="none" points="-4,4 -4,-80 276,-80 276,4 -4,4"/>
<!-- Node1 -->
<g id="node1" class="node"><title>Node1</title>
<polygon fill="#bfbfbf" stroke="black" points="77,-56.5 77,-75.5 183,-75.5 183,-56.5 77,-56.5"/>
<text text-anchor="middle" x="130" y="-63.5" font-family="Helvetica,sans-Serif" font-size="10.00">src/MeasureMatrix.h</text>
</g>
<!-- Node2 -->
<g id="node2" class="node"><title>Node2</title>
<g id="a_node2"><a xlink:href="_measure_matrix_8cpp.html" target="_top" xlink:title="src/MeasureMatrix.cpp">
<polygon fill="white" stroke="black" points="0,-0.5 0,-19.5 116,-19.5 116,-0.5 0,-0.5"/>
<text text-anchor="middle" x="58" y="-7.5" font-family="Helvetica,sans-Serif" font-size="10.00">src/MeasureMatrix.cpp</text>
</a>
</g>
</g>
<!-- Node1&#45;&gt;Node2 -->
<g id="edge1" class="edge"><title>Node1&#45;&gt;Node2</title>
<path fill="none" stroke="midnightblue" d="M110.134,-50.1008C97.1765,-40.3824 80.7026,-28.0269 69.7785,-19.8339"/>
<polygon fill="midnightblue" stroke="midnightblue" points="108.332,-53.1239 118.432,-56.324 112.532,-47.5239 108.332,-53.1239"/>
</g>
<!-- Node3 -->
<g id="node3" class="node"><title>Node3</title>
<g id="a_node3"><a xlink:href="_measure_matrix__test_8cpp.html" target="_top" xlink:title="src/MeasureMatrix_test.cpp">
<polygon fill="white" stroke="black" points="134,-0.5 134,-19.5 272,-19.5 272,-0.5 134,-0.5"/>
<text text-anchor="middle" x="203" y="-7.5" font-family="Helvetica,sans-Serif" font-size="10.00">src/MeasureMatrix_test.cpp</text>
</a>
</g>
</g>
<!-- Node1&#45;&gt;Node3 -->
<g id="edge2" class="edge"><title>Node1&#45;&gt;Node3</title>
<path fill="none" stroke="midnightblue" d="M150.142,-50.1008C163.279,-40.3824 179.982,-28.0269 191.058,-19.8339"/>
<polygon fill="midnightblue" stroke="midnightblue" points="147.687,-47.5631 141.729,-56.324 151.85,-53.1907 147.687,-47.5631"/>
</g>
</g>
</svg>
