<?xml version="1.0" encoding="UTF-8" standalone="no"?>
<!DOCTYPE svg PUBLIC "-//W3C//DTD SVG 1.1//EN"
 "http://www.w3.org/Graphics/SVG/1.1/DTD/svg11.dtd">
<!-- Generated by graphviz version 2.38.0 (20140413.2041)
 -->
<!-- Title: src/RotMatrixConversion.h Pages: 1 -->
<svg width="416pt" height="95pt"
 viewBox="0.00 0.00 415.50 95.00" xmlns="http://www.w3.org/2000/svg" xmlns:xlink="http://www.w3.org/1999/xlink">
<g id="graph0" class="graph" transform="scale(1 1) rotate(0) translate(4 91)">
<title>src/RotMatrixConversion.h</title>
<polygon fill="white" stroke="none" points="-4,4 -4,-91 411.5,-91 411.5,4 -4,4"/>
<!-- Node1 -->
<g id="node1" class="node"><title>Node1</title>
<polygon fill="#bfbfbf" stroke="black" points="125,-67.5 125,-86.5 259,-86.5 259,-67.5 125,-67.5"/>
<text text-anchor="middle" x="192" y="-74.5" font-family="Helvetica,sans-Serif" font-size="10.00">src/RotMatrixConversion.h</text>
</g>
<!-- Node2 -->
<g id="node2" class="node"><title>Node2</title>
<g id="a_node2"><a xlink:href="open_e_vario_8cpp.html" target="_top" xlink:title="src/openEVario.cpp">
<polygon fill="white" stroke="black" points="0,-6 0,-25 102,-25 102,-6 0,-6"/>
<text text-anchor="middle" x="51" y="-13" font-family="Helvetica,sans-Serif" font-size="10.00">src/openEVario.cpp</text>
</a>
</g>
</g>
<!-- Node1&#45;&gt;Node2 -->
<g id="edge1" class="edge"><title>Node1&#45;&gt;Node2</title>
<path fill="none" stroke="midnightblue" d="M162.33,-63.4795C134.945,-51.9238 95.02,-35.0758 71.1644,-25.0091"/>
<polygon fill="midnightblue" stroke="midnightblue" points="161.224,-66.8118 171.798,-67.4751 163.946,-60.3625 161.224,-66.8118"/>
</g>
<!-- Node3 -->
<g id="node3" class="node"><title>Node3</title>
<g id="a_node3"><a xlink:href="_rot_matrix_conversion_8cpp.html" target="_top" xlink:title="src/RotMatrixConversion.cpp">
<polygon fill="white" stroke="black" points="120,-6 120,-25 264,-25 264,-6 120,-6"/>
<text text-anchor="middle" x="192" y="-13" font-family="Helvetica,sans-Serif" font-size="10.00">src/RotMatrixConversion.cpp</text>
</a>
</g>
</g>
<!-- Node1&#45;&gt;Node3 -->
<g id="edge2" class="edge"><title>Node1&#45;&gt;Node3</title>
<path fill="none" stroke="midnightblue" d="M192,-57.3165C192,-46.4962 192,-33.398 192,-25.0091"/>
<polygon fill="midnightblue" stroke="midnightblue" points="188.5,-57.4751 192,-67.4751 195.5,-57.4751 188.5,-57.4751"/>
</g>
<!-- Node4 -->
<g id="node4" class="node"><title>Node4</title>
<g id="a_node4"><a xlink:href="_rot_matrix_conversion__test_8cpp.html" target="_top" xlink:title="src/RotMatrixConversion\l_test.cpp">
<polygon fill="white" stroke="black" points="282.5,-0.5 282.5,-30.5 407.5,-30.5 407.5,-0.5 282.5,-0.5"/>
<text text-anchor="start" x="290.5" y="-18.5" font-family="Helvetica,sans-Serif" font-size="10.00">src/RotMatrixConversion</text>
<text text-anchor="middle" x="345" y="-7.5" font-family="Helvetica,sans-Serif" font-size="10.00">_test.cpp</text>
</a>
</g>
</g>
<!-- Node1&#45;&gt;Node4 -->
<g id="edge3" class="edge"><title>Node1&#45;&gt;Node4</title>
<path fill="none" stroke="midnightblue" d="M223.249,-63.8475C248.104,-54.1817 282.907,-40.6471 308.941,-30.523"/>
<polygon fill="midnightblue" stroke="midnightblue" points="221.973,-60.5886 213.921,-67.4751 224.51,-67.1126 221.973,-60.5886"/>
</g>
</g>
</svg>
