<?xml version="1.0" encoding="UTF-8" standalone="no"?>
<!DOCTYPE svg PUBLIC "-//W3C//DTD SVG 1.1//EN"
 "http://www.w3.org/Graphics/SVG/1.1/DTD/svg11.dtd">
<!-- Generated by graphviz version 2.38.0 (20140413.2041)
 -->
<!-- Title: src/RotationMatrix.cpp Pages: 1 -->
<svg width="246pt" height="196pt"
 viewBox="0.00 0.00 245.50 196.00" xmlns="http://www.w3.org/2000/svg" xmlns:xlink="http://www.w3.org/1999/xlink">
<g id="graph0" class="graph" transform="scale(1 1) rotate(0) translate(4 192)">
<title>src/RotationMatrix.cpp</title>
<polygon fill="white" stroke="none" points="-4,4 -4,-192 241.5,-192 241.5,4 -4,4"/>
<!-- Node1 -->
<g id="node1" class="node"><title>Node1</title>
<polygon fill="#bfbfbf" stroke="black" points="38.5,-168.5 38.5,-187.5 154.5,-187.5 154.5,-168.5 38.5,-168.5"/>
<text text-anchor="middle" x="96.5" y="-175.5" font-family="Helvetica,sans-Serif" font-size="10.00">src/RotationMatrix.cpp</text>
</g>
<!-- Node2 -->
<g id="node2" class="node"><title>Node2</title>
<g id="a_node2"><a xlink:href="_rotation_matrix_8h.html" target="_top" xlink:title="RotationMatrix.h">
<polygon fill="white" stroke="black" points="4,-112.5 4,-131.5 93,-131.5 93,-112.5 4,-112.5"/>
<text text-anchor="middle" x="48.5" y="-119.5" font-family="Helvetica,sans-Serif" font-size="10.00">RotationMatrix.h</text>
</a>
</g>
</g>
<!-- Node1&#45;&gt;Node2 -->
<g id="edge1" class="edge"><title>Node1&#45;&gt;Node2</title>
<path fill="none" stroke="midnightblue" d="M88.5738,-168.083C81.6539,-160.298 71.4346,-148.801 63.048,-139.367"/>
<polygon fill="midnightblue" stroke="midnightblue" points="65.5383,-136.9 56.2787,-131.751 60.3065,-141.55 65.5383,-136.9"/>
</g>
<!-- Node5 -->
<g id="node5" class="node"><title>Node5</title>
<g id="a_node5"><a xlink:href="_fast_math_8h.html" target="_top" xlink:title="FastMath.h">
<polygon fill="white" stroke="black" points="111.5,-112.5 111.5,-131.5 177.5,-131.5 177.5,-112.5 111.5,-112.5"/>
<text text-anchor="middle" x="144.5" y="-119.5" font-family="Helvetica,sans-Serif" font-size="10.00">FastMath.h</text>
</a>
</g>
</g>
<!-- Node1&#45;&gt;Node5 -->
<g id="edge4" class="edge"><title>Node1&#45;&gt;Node5</title>
<path fill="none" stroke="midnightblue" d="M104.426,-168.083C111.346,-160.298 121.565,-148.801 129.952,-139.367"/>
<polygon fill="midnightblue" stroke="midnightblue" points="132.694,-141.55 136.721,-131.751 127.462,-136.9 132.694,-141.55"/>
</g>
<!-- Node3 -->
<g id="node3" class="node"><title>Node3</title>
<g id="a_node3"><a xlink:href="_glider_vario_status_8h.html" target="_top" xlink:title="GliderVarioStatus.h">
<polygon fill="white" stroke="black" points="0,-56.5 0,-75.5 101,-75.5 101,-56.5 0,-56.5"/>
<text text-anchor="middle" x="50.5" y="-63.5" font-family="Helvetica,sans-Serif" font-size="10.00">GliderVarioStatus.h</text>
</a>
</g>
</g>
<!-- Node2&#45;&gt;Node3 -->
<g id="edge2" class="edge"><title>Node2&#45;&gt;Node3</title>
<path fill="none" stroke="midnightblue" d="M48.8303,-112.083C49.0924,-105.006 49.4681,-94.8611 49.7968,-85.9865"/>
<polygon fill="midnightblue" stroke="midnightblue" points="53.3033,-85.8738 50.1759,-75.7511 46.3081,-85.6147 53.3033,-85.8738"/>
</g>
<!-- Node4 -->
<g id="node4" class="node"><title>Node4</title>
<polygon fill="white" stroke="#bfbfbf" points="28,-0.5 28,-19.5 73,-19.5 73,-0.5 28,-0.5"/>
<text text-anchor="middle" x="50.5" y="-7.5" font-family="Helvetica,sans-Serif" font-size="10.00">Dense</text>
</g>
<!-- Node3&#45;&gt;Node4 -->
<g id="edge3" class="edge"><title>Node3&#45;&gt;Node4</title>
<path fill="none" stroke="midnightblue" d="M50.5,-56.083C50.5,-49.0059 50.5,-38.8611 50.5,-29.9865"/>
<polygon fill="midnightblue" stroke="midnightblue" points="54.0001,-29.751 50.5,-19.7511 47.0001,-29.7511 54.0001,-29.751"/>
</g>
<!-- Node5&#45;&gt;Node3 -->
<g id="edge7" class="edge"><title>Node5&#45;&gt;Node3</title>
<path fill="none" stroke="midnightblue" d="M129.397,-112.324C114.597,-103.822 91.8058,-90.7288 74.5178,-80.7975"/>
<polygon fill="midnightblue" stroke="midnightblue" points="75.9798,-77.6009 65.5652,-75.6545 72.4929,-83.6707 75.9798,-77.6009"/>
</g>
<!-- Node6 -->
<g id="node6" class="node"><title>Node6</title>
<polygon fill="white" stroke="#bfbfbf" points="120,-56.5 120,-75.5 167,-75.5 167,-56.5 120,-56.5"/>
<text text-anchor="middle" x="143.5" y="-63.5" font-family="Helvetica,sans-Serif" font-size="10.00">math.h</text>
</g>
<!-- Node5&#45;&gt;Node6 -->
<g id="edge5" class="edge"><title>Node5&#45;&gt;Node6</title>
<path fill="none" stroke="midnightblue" d="M144.335,-112.083C144.204,-105.006 144.016,-94.8611 143.852,-85.9865"/>
<polygon fill="midnightblue" stroke="midnightblue" points="147.347,-85.6845 143.662,-75.7511 140.348,-85.8142 147.347,-85.6845"/>
</g>
<!-- Node7 -->
<g id="node7" class="node"><title>Node7</title>
<polygon fill="white" stroke="#bfbfbf" points="185.5,-56.5 185.5,-75.5 237.5,-75.5 237.5,-56.5 185.5,-56.5"/>
<text text-anchor="middle" x="211.5" y="-63.5" font-family="Helvetica,sans-Serif" font-size="10.00">assert.h</text>
</g>
<!-- Node5&#45;&gt;Node7 -->
<g id="edge6" class="edge"><title>Node5&#45;&gt;Node7</title>
<path fill="none" stroke="midnightblue" d="M155.265,-112.324C165.266,-104.263 180.387,-92.0765 192.43,-82.3695"/>
<polygon fill="midnightblue" stroke="midnightblue" points="194.95,-84.8343 200.539,-75.8339 190.557,-79.3841 194.95,-84.8343"/>
</g>
</g>
</svg>
