<?xml version="1.0" encoding="UTF-8" standalone="no"?>
<!DOCTYPE svg PUBLIC "-//W3C//DTD SVG 1.1//EN"
 "http://www.w3.org/Graphics/SVG/1.1/DTD/svg11.dtd">
<!-- Generated by graphviz version 2.38.0 (20140413.2041)
 -->
<!-- Title: src/RotMatrixConversion.h Pages: 1 -->
<svg width="296pt" height="95pt"
 viewBox="0.00 0.00 295.50 95.00" xmlns="http://www.w3.org/2000/svg" xmlns:xlink="http://www.w3.org/1999/xlink">
<g id="graph0" class="graph" transform="scale(1 1) rotate(0) translate(4 91)">
<title>src/RotMatrixConversion.h</title>
<polygon fill="white" stroke="none" points="-4,4 -4,-91 291.5,-91 291.5,4 -4,4"/>
<!-- Node1 -->
<g id="node1" class="node"><title>Node1</title>
<polygon fill="#bfbfbf" stroke="black" points="81,-67.5 81,-86.5 215,-86.5 215,-67.5 81,-67.5"/>
<text text-anchor="middle" x="148" y="-74.5" font-family="Helvetica,sans-Serif" font-size="10.00">src/RotMatrixConversion.h</text>
</g>
<!-- Node2 -->
<g id="node2" class="node"><title>Node2</title>
<g id="a_node2"><a xlink:href="_rot_matrix_conversion_8cpp.html" target="_top" xlink:title="src/RotMatrixConversion.cpp">
<polygon fill="white" stroke="black" points="0,-6 0,-25 144,-25 144,-6 0,-6"/>
<text text-anchor="middle" x="72" y="-13" font-family="Helvetica,sans-Serif" font-size="10.00">src/RotMatrixConversion.cpp</text>
</a>
</g>
</g>
<!-- Node1&#45;&gt;Node2 -->
<g id="edge1" class="edge"><title>Node1&#45;&gt;Node2</title>
<path fill="none" stroke="midnightblue" d="M129.216,-61.2938C114.637,-49.8803 94.9375,-34.4577 82.8687,-25.0091"/>
<polygon fill="midnightblue" stroke="midnightblue" points="127.079,-64.0665 137.111,-67.4751 131.395,-58.5547 127.079,-64.0665"/>
</g>
<!-- Node3 -->
<g id="node3" class="node"><title>Node3</title>
<g id="a_node3"><a xlink:href="_rot_matrix_conversion__test_8cpp.html" target="_top" xlink:title="src/RotMatrixConversion\l_test.cpp">
<polygon fill="white" stroke="black" points="162.5,-0.5 162.5,-30.5 287.5,-30.5 287.5,-0.5 162.5,-0.5"/>
<text text-anchor="start" x="170.5" y="-18.5" font-family="Helvetica,sans-Serif" font-size="10.00">src/RotMatrixConversion</text>
<text text-anchor="middle" x="225" y="-7.5" font-family="Helvetica,sans-Serif" font-size="10.00">_test.cpp</text>
</a>
</g>
</g>
<!-- Node1&#45;&gt;Node3 -->
<g id="edge2" class="edge"><title>Node1&#45;&gt;Node3</title>
<path fill="none" stroke="midnightblue" d="M167.159,-61.1955C179.301,-51.8129 194.91,-39.7512 206.853,-30.523"/>
<polygon fill="midnightblue" stroke="midnightblue" points="164.805,-58.5911 159.032,-67.4751 169.085,-64.1301 164.805,-58.5911"/>
</g>
</g>
</svg>
