<?xml version="1.0" encoding="UTF-8" standalone="no"?>
<!DOCTYPE svg PUBLIC "-//W3C//DTD SVG 1.1//EN"
 "http://www.w3.org/Graphics/SVG/1.1/DTD/svg11.dtd">
<!-- Generated by graphviz version 2.38.0 (20140413.2041)
 -->
<!-- Title: src/RotationMatrix.h Pages: 1 -->
<svg width="386pt" height="95pt"
 viewBox="0.00 0.00 386.00 95.00" xmlns="http://www.w3.org/2000/svg" xmlns:xlink="http://www.w3.org/1999/xlink">
<g id="graph0" class="graph" transform="scale(1 1) rotate(0) translate(4 91)">
<title>src/RotationMatrix.h</title>
<polygon fill="white" stroke="none" points="-4,4 -4,-91 382,-91 382,4 -4,4"/>
<!-- Node1 -->
<g id="node1" class="node"><title>Node1</title>
<polygon fill="#bfbfbf" stroke="black" points="140.5,-67.5 140.5,-86.5 245.5,-86.5 245.5,-67.5 140.5,-67.5"/>
<text text-anchor="middle" x="193" y="-74.5" font-family="Helvetica,sans-Serif" font-size="10.00">src/RotationMatrix.h</text>
</g>
<!-- Node2 -->
<g id="node2" class="node"><title>Node2</title>
<g id="a_node2"><a xlink:href="_glider_vario_transition_matrix_8cpp.html" target="_top" xlink:title="src/GliderVarioTransition\lMatrix.cpp">
<polygon fill="white" stroke="black" points="0,-0.5 0,-30.5 124,-30.5 124,-0.5 0,-0.5"/>
<text text-anchor="start" x="8" y="-18.5" font-family="Helvetica,sans-Serif" font-size="10.00">src/GliderVarioTransition</text>
<text text-anchor="middle" x="62" y="-7.5" font-family="Helvetica,sans-Serif" font-size="10.00">Matrix.cpp</text>
</a>
</g>
</g>
<!-- Node1&#45;&gt;Node2 -->
<g id="edge1" class="edge"><title>Node1&#45;&gt;Node2</title>
<path fill="none" stroke="midnightblue" d="M165.106,-63.3306C143.911,-53.7037 114.77,-40.468 92.8741,-30.523"/>
<polygon fill="midnightblue" stroke="midnightblue" points="163.679,-66.5263 174.231,-67.4751 166.573,-60.1529 163.679,-66.5263"/>
</g>
<!-- Node3 -->
<g id="node3" class="node"><title>Node3</title>
<g id="a_node3"><a xlink:href="open_e_vario_8cpp.html" target="_top" xlink:title="src/openEVario.cpp">
<polygon fill="white" stroke="black" points="142,-6 142,-25 244,-25 244,-6 142,-6"/>
<text text-anchor="middle" x="193" y="-13" font-family="Helvetica,sans-Serif" font-size="10.00">src/openEVario.cpp</text>
</a>
</g>
</g>
<!-- Node1&#45;&gt;Node3 -->
<g id="edge2" class="edge"><title>Node1&#45;&gt;Node3</title>
<path fill="none" stroke="midnightblue" d="M193,-57.3165C193,-46.4962 193,-33.398 193,-25.0091"/>
<polygon fill="midnightblue" stroke="midnightblue" points="189.5,-57.4751 193,-67.4751 196.5,-57.4751 189.5,-57.4751"/>
</g>
<!-- Node4 -->
<g id="node4" class="node"><title>Node4</title>
<g id="a_node4"><a xlink:href="_rotation_matrix_8cpp.html" target="_top" xlink:title="src/RotationMatrix.cpp">
<polygon fill="white" stroke="black" points="262,-6 262,-25 378,-25 378,-6 262,-6"/>
<text text-anchor="middle" x="320" y="-13" font-family="Helvetica,sans-Serif" font-size="10.00">src/RotationMatrix.cpp</text>
</a>
</g>
</g>
<!-- Node1&#45;&gt;Node4 -->
<g id="edge3" class="edge"><title>Node1&#45;&gt;Node4</title>
<path fill="none" stroke="midnightblue" d="M220.376,-63.1742C245.019,-51.6287 280.539,-34.9875 301.838,-25.0091"/>
<polygon fill="midnightblue" stroke="midnightblue" points="218.767,-60.0631 211.196,-67.4751 221.736,-66.4019 218.767,-60.0631"/>
</g>
</g>
</svg>
