<?xml version="1.0" encoding="UTF-8" standalone="no"?>
<!DOCTYPE svg PUBLIC "-//W3C//DTD SVG 1.1//EN"
 "http://www.w3.org/Graphics/SVG/1.1/DTD/svg11.dtd">
<!-- Generated by graphviz version 2.38.0 (20140413.2041)
 -->
<!-- Title: src/RotMatrixConversion.cpp Pages: 1 -->
<svg width="237pt" height="196pt"
 viewBox="0.00 0.00 237.00 196.00" xmlns="http://www.w3.org/2000/svg" xmlns:xlink="http://www.w3.org/1999/xlink">
<g id="graph0" class="graph" transform="scale(1 1) rotate(0) translate(4 192)">
<title>src/RotMatrixConversion.cpp</title>
<polygon fill="white" stroke="none" points="-4,4 -4,-192 233,-192 233,4 -4,4"/>
<!-- Node1 -->
<g id="node1" class="node"><title>Node1</title>
<polygon fill="#bfbfbf" stroke="black" points="15.5,-168.5 15.5,-187.5 159.5,-187.5 159.5,-168.5 15.5,-168.5"/>
<text text-anchor="middle" x="87.5" y="-175.5" font-family="Helvetica,sans-Serif" font-size="10.00">src/RotMatrixConversion.cpp</text>
</g>
<!-- Node2 -->
<g id="node2" class="node"><title>Node2</title>
<g id="a_node2"><a xlink:href="_rot_matrix_conversion_8h.html" target="_top" xlink:title="RotMatrixConversion.h">
<polygon fill="white" stroke="black" points="29,-112.5 29,-131.5 146,-131.5 146,-112.5 29,-112.5"/>
<text text-anchor="middle" x="87.5" y="-119.5" font-family="Helvetica,sans-Serif" font-size="10.00">RotMatrixConversion.h</text>
</a>
</g>
</g>
<!-- Node1&#45;&gt;Node2 -->
<g id="edge1" class="edge"><title>Node1&#45;&gt;Node2</title>
<path fill="none" stroke="midnightblue" d="M87.5,-168.083C87.5,-161.006 87.5,-150.861 87.5,-141.986"/>
<polygon fill="midnightblue" stroke="midnightblue" points="91.0001,-141.751 87.5,-131.751 84.0001,-141.751 91.0001,-141.751"/>
</g>
<!-- Node3 -->
<g id="node3" class="node"><title>Node3</title>
<polygon fill="white" stroke="#bfbfbf" points="0,-56.5 0,-75.5 47,-75.5 47,-56.5 0,-56.5"/>
<text text-anchor="middle" x="23.5" y="-63.5" font-family="Helvetica,sans-Serif" font-size="10.00">math.h</text>
</g>
<!-- Node2&#45;&gt;Node3 -->
<g id="edge2" class="edge"><title>Node2&#45;&gt;Node3</title>
<path fill="none" stroke="midnightblue" d="M77.2173,-112.324C67.6637,-104.263 53.2203,-92.0765 41.7157,-82.3695"/>
<polygon fill="midnightblue" stroke="midnightblue" points="43.8698,-79.6076 33.9698,-75.8339 39.3557,-84.9577 43.8698,-79.6076"/>
</g>
<!-- Node4 -->
<g id="node4" class="node"><title>Node4</title>
<polygon fill="white" stroke="#bfbfbf" points="65.5,-56.5 65.5,-75.5 109.5,-75.5 109.5,-56.5 65.5,-56.5"/>
<text text-anchor="middle" x="87.5" y="-63.5" font-family="Helvetica,sans-Serif" font-size="10.00">float.h</text>
</g>
<!-- Node2&#45;&gt;Node4 -->
<g id="edge3" class="edge"><title>Node2&#45;&gt;Node4</title>
<path fill="none" stroke="midnightblue" d="M87.5,-112.083C87.5,-105.006 87.5,-94.8611 87.5,-85.9865"/>
<polygon fill="midnightblue" stroke="midnightblue" points="91.0001,-85.751 87.5,-75.7511 84.0001,-85.7511 91.0001,-85.751"/>
</g>
<!-- Node5 -->
<g id="node5" class="node"><title>Node5</title>
<g id="a_node5"><a xlink:href="_glider_vario_status_8h.html" target="_top" xlink:title="GliderVarioStatus.h">
<polygon fill="white" stroke="black" points="128,-56.5 128,-75.5 229,-75.5 229,-56.5 128,-56.5"/>
<text text-anchor="middle" x="178.5" y="-63.5" font-family="Helvetica,sans-Serif" font-size="10.00">GliderVarioStatus.h</text>
</a>
</g>
</g>
<!-- Node2&#45;&gt;Node5 -->
<g id="edge4" class="edge"><title>Node2&#45;&gt;Node5</title>
<path fill="none" stroke="midnightblue" d="M102.121,-112.324C116.449,-103.822 138.513,-90.7288 155.249,-80.7975"/>
<polygon fill="midnightblue" stroke="midnightblue" points="157.102,-83.7677 163.916,-75.6545 153.53,-77.7478 157.102,-83.7677"/>
</g>
<!-- Node6 -->
<g id="node6" class="node"><title>Node6</title>
<polygon fill="white" stroke="#bfbfbf" points="156,-0.5 156,-19.5 201,-19.5 201,-0.5 156,-0.5"/>
<text text-anchor="middle" x="178.5" y="-7.5" font-family="Helvetica,sans-Serif" font-size="10.00">Dense</text>
</g>
<!-- Node5&#45;&gt;Node6 -->
<g id="edge5" class="edge"><title>Node5&#45;&gt;Node6</title>
<path fill="none" stroke="midnightblue" d="M178.5,-56.083C178.5,-49.0059 178.5,-38.8611 178.5,-29.9865"/>
<polygon fill="midnightblue" stroke="midnightblue" points="182,-29.751 178.5,-19.7511 175,-29.7511 182,-29.751"/>
</g>
</g>
</svg>
