<?xml version="1.0" encoding="UTF-8" standalone="no"?>
<!DOCTYPE svg PUBLIC "-//W3C//DTD SVG 1.1//EN"
 "http://www.w3.org/Graphics/SVG/1.1/DTD/svg11.dtd">
<!-- Generated by graphviz version 2.38.0 (20140413.2041)
 -->
<!-- Title: src/RotMatrixConversion.cpp Pages: 1 -->
<svg width="307pt" height="196pt"
 viewBox="0.00 0.00 307.00 196.00" xmlns="http://www.w3.org/2000/svg" xmlns:xlink="http://www.w3.org/1999/xlink">
<g id="graph0" class="graph" transform="scale(1 1) rotate(0) translate(4 192)">
<title>src/RotMatrixConversion.cpp</title>
<polygon fill="white" stroke="none" points="-4,4 -4,-192 303,-192 303,4 -4,4"/>
<!-- Node1 -->
<g id="node1" class="node"><title>Node1</title>
<polygon fill="#bfbfbf" stroke="black" points="128,-168.5 128,-187.5 272,-187.5 272,-168.5 128,-168.5"/>
<text text-anchor="middle" x="200" y="-175.5" font-family="Helvetica,sans-Serif" font-size="10.00">src/RotMatrixConversion.cpp</text>
</g>
<!-- Node2 -->
<g id="node2" class="node"><title>Node2</title>
<polygon fill="white" stroke="#bfbfbf" points="181.5,-56.5 181.5,-75.5 228.5,-75.5 228.5,-56.5 181.5,-56.5"/>
<text text-anchor="middle" x="205" y="-63.5" font-family="Helvetica,sans-Serif" font-size="10.00">math.h</text>
</g>
<!-- Node1&#45;&gt;Node2 -->
<g id="edge1" class="edge"><title>Node1&#45;&gt;Node2</title>
<path fill="none" stroke="midnightblue" d="M200.392,-168.368C201.199,-150.617 203.061,-109.666 204.155,-85.5974"/>
<polygon fill="midnightblue" stroke="midnightblue" points="207.652,-85.7401 204.609,-75.5914 200.659,-85.4221 207.652,-85.7401"/>
</g>
<!-- Node3 -->
<g id="node3" class="node"><title>Node3</title>
<g id="a_node3"><a xlink:href="_rot_matrix_conversion_8h.html" target="_top" xlink:title="RotMatrixConversion.h">
<polygon fill="white" stroke="black" points="54.5,-112.5 54.5,-131.5 171.5,-131.5 171.5,-112.5 54.5,-112.5"/>
<text text-anchor="middle" x="113" y="-119.5" font-family="Helvetica,sans-Serif" font-size="10.00">RotMatrixConversion.h</text>
</a>
</g>
</g>
<!-- Node1&#45;&gt;Node3 -->
<g id="edge2" class="edge"><title>Node1&#45;&gt;Node3</title>
<path fill="none" stroke="midnightblue" d="M186.022,-168.324C172.45,-159.9 151.62,-146.971 135.675,-137.074"/>
<polygon fill="midnightblue" stroke="midnightblue" points="137.286,-133.954 126.943,-131.655 133.594,-139.902 137.286,-133.954"/>
</g>
<!-- Node7 -->
<g id="node7" class="node"><title>Node7</title>
<g id="a_node7"><a xlink:href="_fast_math_8h.html" target="_top" xlink:title="FastMath.h">
<polygon fill="white" stroke="black" points="228,-112.5 228,-131.5 294,-131.5 294,-112.5 228,-112.5"/>
<text text-anchor="middle" x="261" y="-119.5" font-family="Helvetica,sans-Serif" font-size="10.00">FastMath.h</text>
</a>
</g>
</g>
<!-- Node1&#45;&gt;Node7 -->
<g id="edge7" class="edge"><title>Node1&#45;&gt;Node7</title>
<path fill="none" stroke="midnightblue" d="M209.801,-168.324C218.818,-160.341 232.406,-148.313 243.318,-138.653"/>
<polygon fill="midnightblue" stroke="midnightblue" points="245.853,-141.083 251.021,-131.834 241.213,-135.842 245.853,-141.083"/>
</g>
<!-- Node3&#45;&gt;Node2 -->
<g id="edge3" class="edge"><title>Node3&#45;&gt;Node2</title>
<path fill="none" stroke="midnightblue" d="M127.781,-112.324C142.267,-103.822 164.573,-90.7288 181.493,-80.7975"/>
<polygon fill="midnightblue" stroke="midnightblue" points="183.403,-83.735 190.255,-75.6545 179.859,-77.6981 183.403,-83.735"/>
</g>
<!-- Node4 -->
<g id="node4" class="node"><title>Node4</title>
<polygon fill="white" stroke="#bfbfbf" points="0,-56.5 0,-75.5 44,-75.5 44,-56.5 0,-56.5"/>
<text text-anchor="middle" x="22" y="-63.5" font-family="Helvetica,sans-Serif" font-size="10.00">float.h</text>
</g>
<!-- Node3&#45;&gt;Node4 -->
<g id="edge4" class="edge"><title>Node3&#45;&gt;Node4</title>
<path fill="none" stroke="midnightblue" d="M98.3793,-112.324C84.0511,-103.822 61.9875,-90.7288 45.2513,-80.7975"/>
<polygon fill="midnightblue" stroke="midnightblue" points="46.9704,-77.7478 36.5844,-75.6545 43.3982,-83.7677 46.9704,-77.7478"/>
</g>
<!-- Node5 -->
<g id="node5" class="node"><title>Node5</title>
<g id="a_node5"><a xlink:href="_glider_vario_status_8h.html" target="_top" xlink:title="GliderVarioStatus.h">
<polygon fill="white" stroke="black" points="62.5,-56.5 62.5,-75.5 163.5,-75.5 163.5,-56.5 62.5,-56.5"/>
<text text-anchor="middle" x="113" y="-63.5" font-family="Helvetica,sans-Serif" font-size="10.00">GliderVarioStatus.h</text>
</a>
</g>
</g>
<!-- Node3&#45;&gt;Node5 -->
<g id="edge5" class="edge"><title>Node3&#45;&gt;Node5</title>
<path fill="none" stroke="midnightblue" d="M113,-112.083C113,-105.006 113,-94.8611 113,-85.9865"/>
<polygon fill="midnightblue" stroke="midnightblue" points="116.5,-85.751 113,-75.7511 109.5,-85.7511 116.5,-85.751"/>
</g>
<!-- Node6 -->
<g id="node6" class="node"><title>Node6</title>
<polygon fill="white" stroke="#bfbfbf" points="90.5,-0.5 90.5,-19.5 135.5,-19.5 135.5,-0.5 90.5,-0.5"/>
<text text-anchor="middle" x="113" y="-7.5" font-family="Helvetica,sans-Serif" font-size="10.00">Dense</text>
</g>
<!-- Node5&#45;&gt;Node6 -->
<g id="edge6" class="edge"><title>Node5&#45;&gt;Node6</title>
<path fill="none" stroke="midnightblue" d="M113,-56.083C113,-49.0059 113,-38.8611 113,-29.9865"/>
<polygon fill="midnightblue" stroke="midnightblue" points="116.5,-29.751 113,-19.7511 109.5,-29.7511 116.5,-29.751"/>
</g>
<!-- Node7&#45;&gt;Node2 -->
<g id="edge8" class="edge"><title>Node7&#45;&gt;Node2</title>
<path fill="none" stroke="midnightblue" d="M252.003,-112.324C243.806,-104.42 231.494,-92.5482 221.528,-82.9377"/>
<polygon fill="midnightblue" stroke="midnightblue" points="223.789,-80.2558 214.161,-75.8339 218.93,-85.2947 223.789,-80.2558"/>
</g>
<!-- Node7&#45;&gt;Node5 -->
<g id="edge10" class="edge"><title>Node7&#45;&gt;Node5</title>
<path fill="none" stroke="midnightblue" d="M237.549,-112.444C212.867,-103.438 173.815,-89.1891 146.023,-79.049"/>
<polygon fill="midnightblue" stroke="midnightblue" points="146.935,-75.6561 136.341,-75.5164 144.536,-82.2321 146.935,-75.6561"/>
</g>
<!-- Node8 -->
<g id="node8" class="node"><title>Node8</title>
<polygon fill="white" stroke="#bfbfbf" points="247,-56.5 247,-75.5 299,-75.5 299,-56.5 247,-56.5"/>
<text text-anchor="middle" x="273" y="-63.5" font-family="Helvetica,sans-Serif" font-size="10.00">assert.h</text>
</g>
<!-- Node7&#45;&gt;Node8 -->
<g id="edge9" class="edge"><title>Node7&#45;&gt;Node8</title>
<path fill="none" stroke="midnightblue" d="M262.982,-112.083C264.572,-104.927 266.859,-94.6353 268.846,-85.6911"/>
<polygon fill="midnightblue" stroke="midnightblue" points="272.303,-86.2722 271.055,-75.7511 265.469,-84.7537 272.303,-86.2722"/>
</g>
</g>
</svg>
