<?xml version="1.0" encoding="UTF-8" standalone="no"?>
<!DOCTYPE svg PUBLIC "-//W3C//DTD SVG 1.1//EN"
 "http://www.w3.org/Graphics/SVG/1.1/DTD/svg11.dtd">
<!-- Generated by graphviz version 2.38.0 (20140413.2041)
 -->
<!-- Title: src/genSineTables.cpp Pages: 1 -->
<svg width="323pt" height="196pt"
 viewBox="0.00 0.00 322.50 196.00" xmlns="http://www.w3.org/2000/svg" xmlns:xlink="http://www.w3.org/1999/xlink">
<g id="graph0" class="graph" transform="scale(1 1) rotate(0) translate(4 192)">
<title>src/genSineTables.cpp</title>
<polygon fill="white" stroke="none" points="-4,4 -4,-192 318.5,-192 318.5,4 -4,4"/>
<!-- Node1 -->
<g id="node1" class="node"><title>Node1</title>
<polygon fill="#bfbfbf" stroke="black" points="37,-168.5 37,-187.5 153,-187.5 153,-168.5 37,-168.5"/>
<text text-anchor="middle" x="95" y="-175.5" font-family="Helvetica,sans-Serif" font-size="10.00">src/genSineTables.cpp</text>
</g>
<!-- Node2 -->
<g id="node2" class="node"><title>Node2</title>
<polygon fill="white" stroke="#bfbfbf" points="0,-112.5 0,-131.5 54,-131.5 54,-112.5 0,-112.5"/>
<text text-anchor="middle" x="27" y="-119.5" font-family="Helvetica,sans-Serif" font-size="10.00">iostream</text>
</g>
<!-- Node1&#45;&gt;Node2 -->
<g id="edge1" class="edge"><title>Node1&#45;&gt;Node2</title>
<path fill="none" stroke="midnightblue" d="M84.0746,-168.324C73.8254,-160.185 58.2794,-147.839 45.999,-138.087"/>
<polygon fill="midnightblue" stroke="midnightblue" points="48.1319,-135.312 38.1242,-131.834 43.7787,-140.794 48.1319,-135.312"/>
</g>
<!-- Node3 -->
<g id="node3" class="node"><title>Node3</title>
<polygon fill="white" stroke="#bfbfbf" points="72,-112.5 72,-131.5 118,-131.5 118,-112.5 72,-112.5"/>
<text text-anchor="middle" x="95" y="-119.5" font-family="Helvetica,sans-Serif" font-size="10.00">stdio.h</text>
</g>
<!-- Node1&#45;&gt;Node3 -->
<g id="edge2" class="edge"><title>Node1&#45;&gt;Node3</title>
<path fill="none" stroke="midnightblue" d="M95,-168.083C95,-161.006 95,-150.861 95,-141.986"/>
<polygon fill="midnightblue" stroke="midnightblue" points="98.5001,-141.751 95,-131.751 91.5001,-141.751 98.5001,-141.751"/>
</g>
<!-- Node4 -->
<g id="node4" class="node"><title>Node4</title>
<g id="a_node4"><a xlink:href="_fast_math_8h.html" target="_top" xlink:title="FastMath.h">
<polygon fill="white" stroke="black" points="136,-112.5 136,-131.5 202,-131.5 202,-112.5 136,-112.5"/>
<text text-anchor="middle" x="169" y="-119.5" font-family="Helvetica,sans-Serif" font-size="10.00">FastMath.h</text>
</a>
</g>
</g>
<!-- Node1&#45;&gt;Node4 -->
<g id="edge3" class="edge"><title>Node1&#45;&gt;Node4</title>
<path fill="none" stroke="midnightblue" d="M106.889,-168.324C118.15,-160.107 135.287,-147.602 148.709,-137.807"/>
<polygon fill="midnightblue" stroke="midnightblue" points="150.88,-140.556 156.894,-131.834 146.753,-134.901 150.88,-140.556"/>
</g>
<!-- Node5 -->
<g id="node5" class="node"><title>Node5</title>
<polygon fill="white" stroke="#bfbfbf" points="77.5,-56.5 77.5,-75.5 124.5,-75.5 124.5,-56.5 77.5,-56.5"/>
<text text-anchor="middle" x="101" y="-63.5" font-family="Helvetica,sans-Serif" font-size="10.00">math.h</text>
</g>
<!-- Node4&#45;&gt;Node5 -->
<g id="edge4" class="edge"><title>Node4&#45;&gt;Node5</title>
<path fill="none" stroke="midnightblue" d="M158.075,-112.324C147.825,-104.185 132.279,-91.8395 119.999,-82.0874"/>
<polygon fill="midnightblue" stroke="midnightblue" points="122.132,-79.3119 112.124,-75.8339 117.779,-84.7937 122.132,-79.3119"/>
</g>
<!-- Node6 -->
<g id="node6" class="node"><title>Node6</title>
<polygon fill="white" stroke="#bfbfbf" points="143,-56.5 143,-75.5 195,-75.5 195,-56.5 143,-56.5"/>
<text text-anchor="middle" x="169" y="-63.5" font-family="Helvetica,sans-Serif" font-size="10.00">assert.h</text>
</g>
<!-- Node4&#45;&gt;Node6 -->
<g id="edge5" class="edge"><title>Node4&#45;&gt;Node6</title>
<path fill="none" stroke="midnightblue" d="M169,-112.083C169,-105.006 169,-94.8611 169,-85.9865"/>
<polygon fill="midnightblue" stroke="midnightblue" points="172.5,-85.751 169,-75.7511 165.5,-85.7511 172.5,-85.751"/>
</g>
<!-- Node7 -->
<g id="node7" class="node"><title>Node7</title>
<g id="a_node7"><a xlink:href="_glider_vario_status_8h.html" target="_top" xlink:title="GliderVarioStatus.h">
<polygon fill="white" stroke="black" points="213.5,-56.5 213.5,-75.5 314.5,-75.5 314.5,-56.5 213.5,-56.5"/>
<text text-anchor="middle" x="264" y="-63.5" font-family="Helvetica,sans-Serif" font-size="10.00">GliderVarioStatus.h</text>
</a>
</g>
</g>
<!-- Node4&#45;&gt;Node7 -->
<g id="edge6" class="edge"><title>Node4&#45;&gt;Node7</title>
<path fill="none" stroke="midnightblue" d="M184.263,-112.324C199.221,-103.822 222.255,-90.7288 239.727,-80.7975"/>
<polygon fill="midnightblue" stroke="midnightblue" points="241.81,-83.639 248.774,-75.6545 238.351,-77.5534 241.81,-83.639"/>
</g>
<!-- Node8 -->
<g id="node8" class="node"><title>Node8</title>
<polygon fill="white" stroke="#bfbfbf" points="241.5,-0.5 241.5,-19.5 286.5,-19.5 286.5,-0.5 241.5,-0.5"/>
<text text-anchor="middle" x="264" y="-7.5" font-family="Helvetica,sans-Serif" font-size="10.00">Dense</text>
</g>
<!-- Node7&#45;&gt;Node8 -->
<g id="edge7" class="edge"><title>Node7&#45;&gt;Node8</title>
<path fill="none" stroke="midnightblue" d="M264,-56.083C264,-49.0059 264,-38.8611 264,-29.9865"/>
<polygon fill="midnightblue" stroke="midnightblue" points="267.5,-29.751 264,-19.7511 260.5,-29.7511 267.5,-29.751"/>
</g>
</g>
</svg>
