<?xml version="1.0" encoding="UTF-8" standalone="no"?>
<!DOCTYPE svg PUBLIC "-//W3C//DTD SVG 1.1//EN"
 "http://www.w3.org/Graphics/SVG/1.1/DTD/svg11.dtd">
<!-- Generated by graphviz version 2.38.0 (20140413.2041)
 -->
<!-- Title: src/openEVario.cpp Pages: 1 -->
<!--zoomable 252 -->
<svg id="main" version="1.1" xmlns="http://www.w3.org/2000/svg" xmlns:xlink="http://www.w3.org/1999/xlink" xml:space="preserve" onload="init(evt)">
<style type="text/css"><![CDATA[
.edge:hover path { stroke: red; }
.edge:hover polygon { stroke: red; fill: red; }
]]></style>
<script type="text/javascript"><![CDATA[
var edges = document.getElementsByTagName('g');
if (edges && edges.length) {
  for (var i=0;i<edges.length;i++) {
    if (edges[i].id.substr(0,4)=='edge') {
      edges[i].setAttribute('class','edge');
    }
  }
}
]]></script>
        <defs>
                <circle id="rim" cx="0" cy="0" r="7"/>
                <circle id="rim2" cx="0" cy="0" r="3.5"/>
                <g id="zoomPlus">
                        <use xlink:href="#rim" fill="#404040">
                                <set attributeName="fill" to="#808080" begin="zoomplus.mouseover" end="zoomplus.mouseout"/>
                        </use>
                        <path d="M-4,0h8M0,-4v8" fill="none" stroke="white" stroke-width="1.5" pointer-events="none"/>
                </g>
                <g id="zoomMin">
                        <use xlink:href="#rim" fill="#404040">
                                <set attributeName="fill" to="#808080" begin="zoomminus.mouseover" end="zoomminus.mouseout"/>
                        </use>
                        <path d="M-4,0h8" fill="none" stroke="white" stroke-width="1.5" pointer-events="none"/>
                </g>
                <g id="dirArrow">
                        <path fill="none" stroke="white" stroke-width="1.5" d="M0,-3.0v7 M-2.5,-0.5L0,-3.0L2.5,-0.5"/>
                </g>
               <g id="resetDef">
                       <use xlink:href="#rim2" fill="#404040">
                               <set attributeName="fill" to="#808080" begin="reset.mouseover" end="reset.mouseout"/>
                       </use>
               </g>
        </defs>

<script type="text/javascript">
var viewWidth = 983;
var viewHeight = 252;
var sectionId = 'dynsection-0';
</script>
<script xlink:href="svgpan.js"/>
<svg id="graph" class="graph">
<g id="viewport">
<title>src/openEVario.cpp</title>
<polygon fill="white" stroke="none" points="-4,4 -4,-248 978.5,-248 978.5,4 -4,4"/>
<!-- Node1 -->
<g id="node1" class="node"><title>Node1</title>
<polygon fill="#bfbfbf" stroke="black" points="418,-224.5 418,-243.5 520,-243.5 520,-224.5 418,-224.5"/>
<text text-anchor="middle" x="469" y="-231.5" font-family="Helvetica,sans-Serif" font-size="10.00">src/openEVario.cpp</text>
</g>
<!-- Node2 -->
<g id="node2" class="node"><title>Node2</title>
<polygon fill="white" stroke="#bfbfbf" points="0,-168.5 0,-187.5 54,-187.5 54,-168.5 0,-168.5"/>
<text text-anchor="middle" x="27" y="-175.5" font-family="Helvetica,sans-Serif" font-size="10.00">iostream</text>
</g>
<!-- Node1&#45;&gt;Node2 -->
<g id="edge1" class="edge"><title>Node1&#45;&gt;Node2</title>
<path fill="none" stroke="midnightblue" d="M417.729,-229.542C342.288,-223.965 196.838,-211.355 63.9909,-187.953"/>
<polygon fill="midnightblue" stroke="midnightblue" points="64.502,-184.488 54.0424,-186.175 63.271,-191.379 64.502,-184.488"/>
</g>
<!-- Node3 -->
<g id="node3" class="node"><title>Node3</title>
<polygon fill="white" stroke="#bfbfbf" points="72.5,-168.5 72.5,-187.5 121.5,-187.5 121.5,-168.5 72.5,-168.5"/>
<text text-anchor="middle" x="97" y="-175.5" font-family="Helvetica,sans-Serif" font-size="10.00">random</text>
</g>
<!-- Node1&#45;&gt;Node3 -->
<g id="edge2" class="edge"><title>Node1&#45;&gt;Node3</title>
<path fill="none" stroke="midnightblue" d="M417.995,-227.592C352.454,-220.303 235.284,-206.124 136,-188 134.547,-187.735 133.067,-187.452 131.574,-187.155"/>
<polygon fill="midnightblue" stroke="midnightblue" points="132.194,-183.709 121.686,-185.059 130.743,-190.557 132.194,-183.709"/>
</g>
<!-- Node4 -->
<g id="node4" class="node"><title>Node4</title>
<polygon fill="white" stroke="#bfbfbf" points="520.5,-112.5 520.5,-131.5 567.5,-131.5 567.5,-112.5 520.5,-112.5"/>
<text text-anchor="middle" x="544" y="-119.5" font-family="Helvetica,sans-Serif" font-size="10.00">math.h</text>
</g>
<!-- Node1&#45;&gt;Node4 -->
<g id="edge3" class="edge"><title>Node1&#45;&gt;Node4</title>
<path fill="none" stroke="midnightblue" d="M478.498,-224.348C487.592,-215.735 501.322,-201.836 511,-188 521.303,-173.27 530.331,-154.877 536.328,-141.419"/>
<polygon fill="midnightblue" stroke="midnightblue" points="539.709,-142.418 540.454,-131.849 533.281,-139.647 539.709,-142.418"/>
</g>
<!-- Node5 -->
<g id="node5" class="node"><title>Node5</title>
<polygon fill="white" stroke="#bfbfbf" points="178,-168.5 178,-187.5 240,-187.5 240,-168.5 178,-168.5"/>
<text text-anchor="middle" x="209" y="-175.5" font-family="Helvetica,sans-Serif" font-size="10.00">sys/time.h</text>
</g>
<!-- Node1&#45;&gt;Node5 -->
<g id="edge4" class="edge"><title>Node1&#45;&gt;Node5</title>
<path fill="none" stroke="midnightblue" d="M426.572,-224.458C384.497,-215.947 317.925,-202.376 250.311,-188.042"/>
<polygon fill="midnightblue" stroke="midnightblue" points="250.839,-184.577 240.33,-185.923 249.384,-191.424 250.839,-184.577"/>
</g>
<!-- Node6 -->
<g id="node6" class="node"><title>Node6</title>
<g id="a_node6"><a xlink:href="_glider_vario_status_8h.html" target="_top" xlink:title="GliderVarioStatus.h">
<polygon fill="white" stroke="black" points="545.5,-56.5 545.5,-75.5 646.5,-75.5 646.5,-56.5 545.5,-56.5"/>
<text text-anchor="middle" x="596" y="-63.5" font-family="Helvetica,sans-Serif" font-size="10.00">GliderVarioStatus.h</text>
</a>
</g>
</g>
<!-- Node1&#45;&gt;Node6 -->
<g id="edge5" class="edge"><title>Node1&#45;&gt;Node6</title>
<path fill="none" stroke="midnightblue" d="M520.063,-229.62C577.245,-224.646 664.61,-213.076 685,-188 695.595,-174.97 695.043,-138.216 677,-112 666.728,-97.0753 649.817,-86.5729 634.096,-79.4904"/>
<polygon fill="midnightblue" stroke="midnightblue" points="635.109,-76.1211 624.532,-75.5135 632.422,-82.5846 635.109,-76.1211"/>
</g>
<!-- Node8 -->
<g id="node8" class="node"><title>Node8</title>
<g id="a_node8"><a xlink:href="_glider_vario_transition_matrix_8h.html" target="_top" xlink:title="GliderVarioTransitionMatrix.h">
<polygon fill="white" stroke="black" points="724.5,-112.5 724.5,-131.5 867.5,-131.5 867.5,-112.5 724.5,-112.5"/>
<text text-anchor="middle" x="796" y="-119.5" font-family="Helvetica,sans-Serif" font-size="10.00">GliderVarioTransitionMatrix.h</text>
</a>
</g>
</g>
<!-- Node1&#45;&gt;Node8 -->
<g id="edge7" class="edge"><title>Node1&#45;&gt;Node8</title>
<path fill="none" stroke="midnightblue" d="M520.429,-231.337C572.459,-227.941 654.112,-217.825 718,-188 743.067,-176.298 766.713,-154.515 781.261,-139.41"/>
<polygon fill="midnightblue" stroke="midnightblue" points="784.09,-141.508 788.357,-131.811 778.974,-136.73 784.09,-141.508"/>
</g>
<!-- Node9 -->
<g id="node9" class="node"><title>Node9</title>
<g id="a_node9"><a xlink:href="_rotation_matrix_8h.html" target="_top" xlink:title="RotationMatrix.h">
<polygon fill="white" stroke="black" points="885.5,-112.5 885.5,-131.5 974.5,-131.5 974.5,-112.5 885.5,-112.5"/>
<text text-anchor="middle" x="930" y="-119.5" font-family="Helvetica,sans-Serif" font-size="10.00">RotationMatrix.h</text>
</a>
</g>
</g>
<!-- Node1&#45;&gt;Node9 -->
<g id="edge9" class="edge"><title>Node1&#45;&gt;Node9</title>
<path fill="none" stroke="midnightblue" d="M520.041,-227.546C576.237,-220.893 668.972,-207.997 747,-188 802.378,-173.808 864.678,-149.901 900.438,-135.374"/>
<polygon fill="midnightblue" stroke="midnightblue" points="901.866,-138.571 909.792,-131.541 899.212,-132.094 901.866,-138.571"/>
</g>
<!-- Node10 -->
<g id="node10" class="node"><title>Node10</title>
<g id="a_node10"><a xlink:href="_fast_math_8h.html" target="_top" xlink:title="FastMath.h">
<polygon fill="white" stroke="black" points="436,-168.5 436,-187.5 502,-187.5 502,-168.5 436,-168.5"/>
<text text-anchor="middle" x="469" y="-175.5" font-family="Helvetica,sans-Serif" font-size="10.00">FastMath.h</text>
</a>
</g>
</g>
<!-- Node1&#45;&gt;Node10 -->
<g id="edge11" class="edge"><title>Node1&#45;&gt;Node10</title>
<path fill="none" stroke="midnightblue" d="M469,-224.083C469,-217.006 469,-206.861 469,-197.986"/>
<polygon fill="midnightblue" stroke="midnightblue" points="472.5,-197.751 469,-187.751 465.5,-197.751 472.5,-197.751"/>
</g>
<!-- Node12 -->
<g id="node12" class="node"><title>Node12</title>
<g id="a_node12"><a xlink:href="_glider_vario_measurement_vector_8h.html" target="_top" xlink:title="GliderVarioMeasurementVector.h">
<polygon fill="white" stroke="black" points="194.5,-112.5 194.5,-131.5 355.5,-131.5 355.5,-112.5 194.5,-112.5"/>
<text text-anchor="middle" x="275" y="-119.5" font-family="Helvetica,sans-Serif" font-size="10.00">GliderVarioMeasurementVector.h</text>
</a>
</g>
</g>
<!-- Node1&#45;&gt;Node12 -->
<g id="edge15" class="edge"><title>Node1&#45;&gt;Node12</title>
<path fill="none" stroke="midnightblue" d="M417.717,-233.022C340.617,-231.84 200.489,-224.565 169,-188 147.663,-163.224 188.681,-145.012 225.737,-134.27"/>
<polygon fill="midnightblue" stroke="midnightblue" points="226.82,-137.602 235.529,-131.57 224.959,-130.854 226.82,-137.602"/>
</g>
<!-- Node13 -->
<g id="node13" class="node"><title>Node13</title>
<g id="a_node13"><a xlink:href="_glider_vario_measurement_matrix_8h.html" target="_top" xlink:title="GliderVarioMeasurementMatrix.h">
<polygon fill="white" stroke="black" points="258.5,-168.5 258.5,-187.5 417.5,-187.5 417.5,-168.5 258.5,-168.5"/>
<text text-anchor="middle" x="338" y="-175.5" font-family="Helvetica,sans-Serif" font-size="10.00">GliderVarioMeasurementMatrix.h</text>
</a>
</g>
</g>
<!-- Node1&#45;&gt;Node13 -->
<g id="edge17" class="edge"><title>Node1&#45;&gt;Node13</title>
<path fill="none" stroke="midnightblue" d="M448.243,-224.444C426.684,-215.557 392.737,-201.563 368.206,-191.451"/>
<polygon fill="midnightblue" stroke="midnightblue" points="369.239,-188.092 358.66,-187.516 366.572,-194.563 369.239,-188.092"/>
</g>
<!-- Node14 -->
<g id="node14" class="node"><title>Node14</title>
<g id="a_node14"><a xlink:href="_rot_matrix_conversion_8h.html" target="_top" xlink:title="RotMatrixConversion.h">
<polygon fill="white" stroke="black" points="558.5,-168.5 558.5,-187.5 675.5,-187.5 675.5,-168.5 558.5,-168.5"/>
<text text-anchor="middle" x="617" y="-175.5" font-family="Helvetica,sans-Serif" font-size="10.00">RotMatrixConversion.h</text>
</a>
</g>
</g>
<!-- Node1&#45;&gt;Node14 -->
<g id="edge20" class="edge"><title>Node1&#45;&gt;Node14</title>
<path fill="none" stroke="midnightblue" d="M492.451,-224.444C517.133,-215.438 556.185,-201.189 583.977,-191.049"/>
<polygon fill="midnightblue" stroke="midnightblue" points="585.464,-194.232 593.659,-187.516 583.065,-187.656 585.464,-194.232"/>
</g>
<!-- Node7 -->
<g id="node7" class="node"><title>Node7</title>
<polygon fill="white" stroke="#bfbfbf" points="573.5,-0.5 573.5,-19.5 618.5,-19.5 618.5,-0.5 573.5,-0.5"/>
<text text-anchor="middle" x="596" y="-7.5" font-family="Helvetica,sans-Serif" font-size="10.00">Dense</text>
</g>
<!-- Node6&#45;&gt;Node7 -->
<g id="edge6" class="edge"><title>Node6&#45;&gt;Node7</title>
<path fill="none" stroke="midnightblue" d="M596,-56.083C596,-49.0059 596,-38.8611 596,-29.9865"/>
<polygon fill="midnightblue" stroke="midnightblue" points="599.5,-29.751 596,-19.7511 592.5,-29.7511 599.5,-29.751"/>
</g>
<!-- Node8&#45;&gt;Node6 -->
<g id="edge8" class="edge"><title>Node8&#45;&gt;Node6</title>
<path fill="none" stroke="midnightblue" d="M764.309,-112.444C729.932,-103.162 674.923,-88.3093 637.211,-78.127"/>
<polygon fill="midnightblue" stroke="midnightblue" points="638.109,-74.7442 627.542,-75.5164 636.284,-81.5022 638.109,-74.7442"/>
</g>
<!-- Node9&#45;&gt;Node6 -->
<g id="edge10" class="edge"><title>Node9&#45;&gt;Node6</title>
<path fill="none" stroke="midnightblue" d="M885.472,-113.407C882.606,-112.928 879.763,-112.456 877,-112 801.008,-99.4633 713.367,-85.5083 656.443,-76.5111"/>
<polygon fill="midnightblue" stroke="midnightblue" points="656.955,-73.0486 646.531,-74.9455 655.862,-79.9629 656.955,-73.0486"/>
</g>
<!-- Node10&#45;&gt;Node4 -->
<g id="edge12" class="edge"><title>Node10&#45;&gt;Node4</title>
<path fill="none" stroke="midnightblue" d="M481.05,-168.324C492.463,-160.107 509.831,-147.602 523.435,-137.807"/>
<polygon fill="midnightblue" stroke="midnightblue" points="525.66,-140.517 531.731,-131.834 521.57,-134.837 525.66,-140.517"/>
</g>
<!-- Node10&#45;&gt;Node6 -->
<g id="edge14" class="edge"><title>Node10&#45;&gt;Node6</title>
<path fill="none" stroke="midnightblue" d="M459.968,-168.329C447.389,-155.191 427.571,-129.882 441,-112 452.623,-96.5224 496.843,-84.6445 535.092,-76.9887"/>
<polygon fill="midnightblue" stroke="midnightblue" points="536.022,-80.3737 545.175,-75.0379 534.693,-73.5012 536.022,-80.3737"/>
</g>
<!-- Node11 -->
<g id="node11" class="node"><title>Node11</title>
<polygon fill="white" stroke="#bfbfbf" points="450,-112.5 450,-131.5 502,-131.5 502,-112.5 450,-112.5"/>
<text text-anchor="middle" x="476" y="-119.5" font-family="Helvetica,sans-Serif" font-size="10.00">assert.h</text>
</g>
<!-- Node10&#45;&gt;Node11 -->
<g id="edge13" class="edge"><title>Node10&#45;&gt;Node11</title>
<path fill="none" stroke="midnightblue" d="M470.156,-168.083C471.084,-160.927 472.418,-150.635 473.577,-141.691"/>
<polygon fill="midnightblue" stroke="midnightblue" points="477.051,-142.118 474.866,-131.751 470.109,-141.218 477.051,-142.118"/>
</g>
<!-- Node12&#45;&gt;Node6 -->
<g id="edge16" class="edge"><title>Node12&#45;&gt;Node6</title>
<path fill="none" stroke="midnightblue" d="M325.863,-112.444C382.683,-102.885 474.617,-87.4195 535.19,-77.2298"/>
<polygon fill="midnightblue" stroke="midnightblue" points="536.094,-80.6269 545.375,-75.5164 534.932,-73.7239 536.094,-80.6269"/>
</g>
<!-- Node13&#45;&gt;Node6 -->
<g id="edge18" class="edge"><title>Node13&#45;&gt;Node6</title>
<path fill="none" stroke="midnightblue" d="M348.004,-168.354C364.458,-154.551 398.734,-127.515 432,-112 465.923,-96.1788 506.468,-84.9915 538.757,-77.7286"/>
<polygon fill="midnightblue" stroke="midnightblue" points="539.908,-81.0598 548.931,-75.5075 538.415,-74.2209 539.908,-81.0598"/>
</g>
<!-- Node13&#45;&gt;Node12 -->
<g id="edge19" class="edge"><title>Node13&#45;&gt;Node12</title>
<path fill="none" stroke="midnightblue" d="M327.878,-168.324C318.474,-160.263 304.256,-148.077 292.931,-138.369"/>
<polygon fill="midnightblue" stroke="midnightblue" points="295.177,-135.684 285.306,-131.834 290.621,-140.999 295.177,-135.684"/>
</g>
<!-- Node14&#45;&gt;Node4 -->
<g id="edge21" class="edge"><title>Node14&#45;&gt;Node4</title>
<path fill="none" stroke="midnightblue" d="M605.271,-168.324C594.163,-160.107 577.258,-147.602 564.017,-137.807"/>
<polygon fill="midnightblue" stroke="midnightblue" points="566.063,-134.967 555.942,-131.834 561.9,-140.595 566.063,-134.967"/>
</g>
<!-- Node14&#45;&gt;Node6 -->
<g id="edge23" class="edge"><title>Node14&#45;&gt;Node6</title>
<path fill="none" stroke="midnightblue" d="M615.352,-168.368C611.963,-150.617 604.145,-109.666 599.55,-85.5974"/>
<polygon fill="midnightblue" stroke="midnightblue" points="602.953,-84.7577 597.64,-75.5914 596.078,-86.0704 602.953,-84.7577"/>
</g>
<!-- Node15 -->
<g id="node15" class="node"><title>Node15</title>
<polygon fill="white" stroke="#bfbfbf" points="624,-112.5 624,-131.5 668,-131.5 668,-112.5 624,-112.5"/>
<text text-anchor="middle" x="646" y="-119.5" font-family="Helvetica,sans-Serif" font-size="10.00">float.h</text>
</g>
<!-- Node14&#45;&gt;Node15 -->
<g id="edge22" class="edge"><title>Node14&#45;&gt;Node15</title>
<path fill="none" stroke="midnightblue" d="M621.789,-168.083C625.758,-160.691 631.525,-149.953 636.435,-140.811"/>
<polygon fill="midnightblue" stroke="midnightblue" points="639.653,-142.217 641.3,-131.751 633.486,-138.905 639.653,-142.217"/>
</g>
</g>
</svg>
        <g id="navigator" transform="translate(0 0)" fill="#404254">
                <rect fill="#f2f5e9" fill-opacity="0.5" stroke="#606060" stroke-width=".5" x="0" y="0" width="60" height="60"/>
                <use id="zoomplus" xlink:href="#zoomPlus" x="17" y="9" onmousedown="handleZoom(evt,'in')"/>
                <use id="zoomminus" xlink:href="#zoomMin" x="42" y="9" onmousedown="handleZoom(evt,'out')"/>
                <use id="reset" xlink:href="#resetDef" x="30" y="36" onmousedown="handleReset()"/>
                <g id="arrowUp" xlink:href="#dirArrow" transform="translate(30 24)" onmousedown="handlePan(0,-1)">
                  <use xlink:href="#rim" fill="#404040">
                        <set attributeName="fill" to="#808080" begin="arrowUp.mouseover" end="arrowUp.mouseout"/>
                  </use>
                  <path fill="none" stroke="white" stroke-width="1.5" d="M0,-3.0v7 M-2.5,-0.5L0,-3.0L2.5,-0.5"/>
                </g>
                <g id="arrowRight" xlink:href="#dirArrow" transform="rotate(90) translate(36 -43)" onmousedown="handlePan(1,0)">
                  <use xlink:href="#rim" fill="#404040">
                        <set attributeName="fill" to="#808080" begin="arrowRight.mouseover" end="arrowRight.mouseout"/>
                  </use>
                  <path fill="none" stroke="white" stroke-width="1.5" d="M0,-3.0v7 M-2.5,-0.5L0,-3.0L2.5,-0.5"/>
                </g>
                <g id="arrowDown" xlink:href="#dirArrow" transform="rotate(180) translate(-30 -48)" onmousedown="handlePan(0,1)">
                  <use xlink:href="#rim" fill="#404040">
                        <set attributeName="fill" to="#808080" begin="arrowDown.mouseover" end="arrowDown.mouseout"/>
                  </use>
                  <path fill="none" stroke="white" stroke-width="1.5" d="M0,-3.0v7 M-2.5,-0.5L0,-3.0L2.5,-0.5"/>
                </g>
                <g id="arrowLeft" xlink:href="#dirArrow" transform="rotate(270) translate(-36 17)" onmousedown="handlePan(-1,0)">
                  <use xlink:href="#rim" fill="#404040">
                        <set attributeName="fill" to="#808080" begin="arrowLeft.mouseover" end="arrowLeft.mouseout"/>
                  </use>
                  <path fill="none" stroke="white" stroke-width="1.5" d="M0,-3.0v7 M-2.5,-0.5L0,-3.0L2.5,-0.5"/>
                </g>
        </g>
        <svg viewBox="0 0 15 15" width="100%" height="30px" preserveAspectRatio="xMaxYMin meet">
         <g id="arrow_out" transform="scale(0.3 0.3)">
          <a xlink:href="open_e_vario_8cpp__incl_org.svg" target="_base">
           <rect id="button" ry="5" rx="5" y="6" x="6" height="38" width="38"
                fill="#f2f5e9" fill-opacity="0.5" stroke="#606060" stroke-width="1.0"/>
           <path id="arrow"
             d="M 11.500037,31.436501 C 11.940474,20.09759 22.043105,11.32322 32.158766,21.979434 L 37.068811,17.246167 C 37.068811,17.246167 37.088388,32 37.088388,32 L 22.160133,31.978069 C 22.160133,31.978069 26.997745,27.140456 26.997745,27.140456 C 18.528582,18.264221 13.291696,25.230495 11.500037,31.436501 z"
             style="fill:#404040;"/>
          </a>
         </g>
        </svg>
</svg>
