<?xml version="1.0" encoding="UTF-8" standalone="no"?>
<!DOCTYPE svg PUBLIC "-//W3C//DTD SVG 1.1//EN"
 "http://www.w3.org/Graphics/SVG/1.1/DTD/svg11.dtd">
<!-- Generated by graphviz version 2.38.0 (20140413.2041)
 -->
<!-- Title: src/openEVario.cpp Pages: 1 -->
<svg width="788pt" height="252pt"
 viewBox="0.00 0.00 788.00 252.00" xmlns="http://www.w3.org/2000/svg" xmlns:xlink="http://www.w3.org/1999/xlink">
<g id="graph0" class="graph" transform="scale(1 1) rotate(0) translate(4 248)">
<title>src/openEVario.cpp</title>
<polygon fill="white" stroke="none" points="-4,4 -4,-248 784,-248 784,4 -4,4"/>
<!-- Node1 -->
<g id="node1" class="node"><title>Node1</title>
<polygon fill="#bfbfbf" stroke="black" points="246.5,-224.5 246.5,-243.5 348.5,-243.5 348.5,-224.5 246.5,-224.5"/>
<text text-anchor="middle" x="297.5" y="-231.5" font-family="Helvetica,sans-Serif" font-size="10.00">src/openEVario.cpp</text>
</g>
<!-- Node2 -->
<g id="node2" class="node"><title>Node2</title>
<polygon fill="white" stroke="#bfbfbf" points="0,-168.5 0,-187.5 49,-187.5 49,-168.5 0,-168.5"/>
<text text-anchor="middle" x="24.5" y="-175.5" font-family="Helvetica,sans-Serif" font-size="10.00">random</text>
</g>
<!-- Node1&#45;&gt;Node2 -->
<g id="edge1" class="edge"><title>Node1&#45;&gt;Node2</title>
<path fill="none" stroke="midnightblue" d="M246.46,-224.497C200.1,-216.524 129.632,-203.786 59.258,-188.038"/>
<polygon fill="midnightblue" stroke="midnightblue" points="59.8564,-184.585 49.331,-185.796 58.3143,-191.413 59.8564,-184.585"/>
</g>
<!-- Node3 -->
<g id="node3" class="node"><title>Node3</title>
<polygon fill="white" stroke="#bfbfbf" points="67.5,-168.5 67.5,-187.5 121.5,-187.5 121.5,-168.5 67.5,-168.5"/>
<text text-anchor="middle" x="94.5" y="-175.5" font-family="Helvetica,sans-Serif" font-size="10.00">iostream</text>
</g>
<!-- Node1&#45;&gt;Node3 -->
<g id="edge2" class="edge"><title>Node1&#45;&gt;Node3</title>
<path fill="none" stroke="midnightblue" d="M265.334,-224.444C228.901,-214.752 169.64,-198.988 131.369,-188.807"/>
<polygon fill="midnightblue" stroke="midnightblue" points="132.207,-185.409 121.643,-186.22 130.407,-192.173 132.207,-185.409"/>
</g>
<!-- Node4 -->
<g id="node4" class="node"><title>Node4</title>
<polygon fill="white" stroke="#bfbfbf" points="207,-112.5 207,-131.5 254,-131.5 254,-112.5 207,-112.5"/>
<text text-anchor="middle" x="230.5" y="-119.5" font-family="Helvetica,sans-Serif" font-size="10.00">math.h</text>
</g>
<!-- Node1&#45;&gt;Node4 -->
<g id="edge3" class="edge"><title>Node1&#45;&gt;Node4</title>
<path fill="none" stroke="midnightblue" d="M292.243,-224.368C281.235,-206.296 255.58,-164.176 241.042,-140.307"/>
<polygon fill="midnightblue" stroke="midnightblue" points="243.924,-138.311 235.733,-131.591 237.946,-141.953 243.924,-138.311"/>
</g>
<!-- Node5 -->
<g id="node5" class="node"><title>Node5</title>
<polygon fill="white" stroke="#bfbfbf" points="177.5,-168.5 177.5,-187.5 239.5,-187.5 239.5,-168.5 177.5,-168.5"/>
<text text-anchor="middle" x="208.5" y="-175.5" font-family="Helvetica,sans-Serif" font-size="10.00">sys/time.h</text>
</g>
<!-- Node1&#45;&gt;Node5 -->
<g id="edge4" class="edge"><title>Node1&#45;&gt;Node5</title>
<path fill="none" stroke="midnightblue" d="M283.201,-224.324C269.317,-215.9 248.008,-202.971 231.696,-193.074"/>
<polygon fill="midnightblue" stroke="midnightblue" points="233.129,-189.85 222.764,-187.655 229.498,-195.834 233.129,-189.85"/>
</g>
<!-- Node6 -->
<g id="node6" class="node"><title>Node6</title>
<g id="a_node6"><a xlink:href="_glider_vario_status_8h.html" target="_top" xlink:title="GliderVarioStatus.h">
<polygon fill="white" stroke="black" points="465,-56.5 465,-75.5 566,-75.5 566,-56.5 465,-56.5"/>
<text text-anchor="middle" x="515.5" y="-63.5" font-family="Helvetica,sans-Serif" font-size="10.00">GliderVarioStatus.h</text>
</a>
</g>
</g>
<!-- Node1&#45;&gt;Node6 -->
<g id="edge5" class="edge"><title>Node1&#45;&gt;Node6</title>
<path fill="none" stroke="midnightblue" d="M348.712,-232.622C422.92,-230.863 554.748,-222.781 584.5,-188 613.544,-154.048 564.723,-106.076 535.303,-82.0073"/>
<polygon fill="midnightblue" stroke="midnightblue" points="537.259,-79.0916 527.251,-75.6147 532.907,-84.5738 537.259,-79.0916"/>
</g>
<!-- Node8 -->
<g id="node8" class="node"><title>Node8</title>
<g id="a_node8"><a xlink:href="_glider_vario_transition_matrix_8h.html" target="_top" xlink:title="GliderVarioTransitionMatrix.h">
<polygon fill="white" stroke="black" points="637,-112.5 637,-131.5 780,-131.5 780,-112.5 637,-112.5"/>
<text text-anchor="middle" x="708.5" y="-119.5" font-family="Helvetica,sans-Serif" font-size="10.00">GliderVarioTransitionMatrix.h</text>
</a>
</g>
</g>
<!-- Node1&#45;&gt;Node8 -->
<g id="edge7" class="edge"><title>Node1&#45;&gt;Node8</title>
<path fill="none" stroke="midnightblue" d="M348.553,-233.767C414.363,-233.028 531.183,-225.793 622.5,-188 649.89,-176.664 676.309,-154.473 692.472,-139.199"/>
<polygon fill="midnightblue" stroke="midnightblue" points="695.212,-141.417 699.941,-131.936 690.332,-136.398 695.212,-141.417"/>
</g>
<!-- Node9 -->
<g id="node9" class="node"><title>Node9</title>
<g id="a_node9"><a xlink:href="_rotation_matrix_8h.html" target="_top" xlink:title="RotationMatrix.h">
<polygon fill="white" stroke="black" points="100,-112.5 100,-131.5 189,-131.5 189,-112.5 100,-112.5"/>
<text text-anchor="middle" x="144.5" y="-119.5" font-family="Helvetica,sans-Serif" font-size="10.00">RotationMatrix.h</text>
</a>
</g>
</g>
<!-- Node1&#45;&gt;Node9 -->
<g id="edge9" class="edge"><title>Node1&#45;&gt;Node9</title>
<path fill="none" stroke="midnightblue" d="M246.396,-225.81C220.157,-219.72 189.4,-208.526 168.5,-188 156.039,-175.762 149.993,-156.499 147.093,-142.114"/>
<polygon fill="midnightblue" stroke="midnightblue" points="150.479,-141.139 145.38,-131.852 143.575,-142.292 150.479,-141.139"/>
</g>
<!-- Node10 -->
<g id="node10" class="node"><title>Node10</title>
<g id="a_node10"><a xlink:href="_fast_math_8h.html" target="_top" xlink:title="FastMath.h">
<polygon fill="white" stroke="black" points="295.5,-168.5 295.5,-187.5 361.5,-187.5 361.5,-168.5 295.5,-168.5"/>
<text text-anchor="middle" x="328.5" y="-175.5" font-family="Helvetica,sans-Serif" font-size="10.00">FastMath.h</text>
</a>
</g>
</g>
<!-- Node1&#45;&gt;Node10 -->
<g id="edge11" class="edge"><title>Node1&#45;&gt;Node10</title>
<path fill="none" stroke="midnightblue" d="M302.619,-224.083C306.908,-216.613 313.158,-205.724 318.442,-196.52"/>
<polygon fill="midnightblue" stroke="midnightblue" points="321.533,-198.166 323.476,-187.751 315.462,-194.681 321.533,-198.166"/>
</g>
<!-- Node12 -->
<g id="node12" class="node"><title>Node12</title>
<g id="a_node12"><a xlink:href="_glider_vario_measurement_vector_8h.html" target="_top" xlink:title="GliderVarioMeasurementVector.h">
<polygon fill="white" stroke="black" points="381,-112.5 381,-131.5 542,-131.5 542,-112.5 381,-112.5"/>
<text text-anchor="middle" x="461.5" y="-119.5" font-family="Helvetica,sans-Serif" font-size="10.00">GliderVarioMeasurementVector.h</text>
</a>
</g>
</g>
<!-- Node1&#45;&gt;Node12 -->
<g id="edge15" class="edge"><title>Node1&#45;&gt;Node12</title>
<path fill="none" stroke="midnightblue" d="M311.949,-224.488C326.808,-215.642 350.534,-201.263 370.5,-188 395.516,-171.383 423.526,-151.115 441.778,-137.675"/>
<polygon fill="midnightblue" stroke="midnightblue" points="443.937,-140.431 449.898,-131.672 439.776,-134.802 443.937,-140.431"/>
</g>
<!-- Node13 -->
<g id="node13" class="node"><title>Node13</title>
<g id="a_node13"><a xlink:href="_glider_vario_measurement_matrix_8h.html" target="_top" xlink:title="GliderVarioMeasurementMatrix.h">
<polygon fill="white" stroke="black" points="417,-168.5 417,-187.5 576,-187.5 576,-168.5 417,-168.5"/>
<text text-anchor="middle" x="496.5" y="-175.5" font-family="Helvetica,sans-Serif" font-size="10.00">GliderVarioMeasurementMatrix.h</text>
</a>
</g>
</g>
<!-- Node1&#45;&gt;Node13 -->
<g id="edge17" class="edge"><title>Node1&#45;&gt;Node13</title>
<path fill="none" stroke="midnightblue" d="M329.032,-224.444C363.092,-215.201 417.506,-200.436 455.015,-190.257"/>
<polygon fill="midnightblue" stroke="midnightblue" points="456.381,-193.513 465.115,-187.516 454.548,-186.758 456.381,-193.513"/>
</g>
<!-- Node7 -->
<g id="node7" class="node"><title>Node7</title>
<polygon fill="white" stroke="#bfbfbf" points="493,-0.5 493,-19.5 538,-19.5 538,-0.5 493,-0.5"/>
<text text-anchor="middle" x="515.5" y="-7.5" font-family="Helvetica,sans-Serif" font-size="10.00">Dense</text>
</g>
<!-- Node6&#45;&gt;Node7 -->
<g id="edge6" class="edge"><title>Node6&#45;&gt;Node7</title>
<path fill="none" stroke="midnightblue" d="M515.5,-56.083C515.5,-49.0059 515.5,-38.8611 515.5,-29.9865"/>
<polygon fill="midnightblue" stroke="midnightblue" points="519,-29.751 515.5,-19.7511 512,-29.7511 519,-29.751"/>
</g>
<!-- Node8&#45;&gt;Node6 -->
<g id="edge8" class="edge"><title>Node8&#45;&gt;Node6</title>
<path fill="none" stroke="midnightblue" d="M677.919,-112.444C644.885,-103.201 592.112,-88.4356 555.734,-78.2572"/>
<polygon fill="midnightblue" stroke="midnightblue" points="556.512,-74.8404 545.938,-75.5164 554.625,-81.5815 556.512,-74.8404"/>
</g>
<!-- Node9&#45;&gt;Node6 -->
<g id="edge10" class="edge"><title>Node9&#45;&gt;Node6</title>
<path fill="none" stroke="midnightblue" d="M189.018,-113.349C191.887,-112.884 194.733,-112.431 197.5,-112 286.928,-98.0823 390.795,-83.7228 454.838,-75.0769"/>
<polygon fill="midnightblue" stroke="midnightblue" points="455.323,-78.5432 464.766,-73.7393 454.389,-71.6059 455.323,-78.5432"/>
</g>
<!-- Node10&#45;&gt;Node4 -->
<g id="edge12" class="edge"><title>Node10&#45;&gt;Node4</title>
<path fill="none" stroke="midnightblue" d="M312.755,-168.324C297.181,-159.743 273.123,-146.486 255.041,-136.522"/>
<polygon fill="midnightblue" stroke="midnightblue" points="256.654,-133.415 246.206,-131.655 253.276,-139.546 256.654,-133.415"/>
</g>
<!-- Node10&#45;&gt;Node6 -->
<g id="edge14" class="edge"><title>Node10&#45;&gt;Node6</title>
<path fill="none" stroke="midnightblue" d="M319.523,-168.175C307.044,-154.836 287.485,-129.268 301.5,-112 320.503,-88.5849 398.331,-76.9015 454.657,-71.4064"/>
<polygon fill="midnightblue" stroke="midnightblue" points="455.273,-74.8642 464.905,-70.4509 454.623,-67.8944 455.273,-74.8642"/>
</g>
<!-- Node11 -->
<g id="node11" class="node"><title>Node11</title>
<polygon fill="white" stroke="#bfbfbf" points="310.5,-112.5 310.5,-131.5 362.5,-131.5 362.5,-112.5 310.5,-112.5"/>
<text text-anchor="middle" x="336.5" y="-119.5" font-family="Helvetica,sans-Serif" font-size="10.00">assert.h</text>
</g>
<!-- Node10&#45;&gt;Node11 -->
<g id="edge13" class="edge"><title>Node10&#45;&gt;Node11</title>
<path fill="none" stroke="midnightblue" d="M329.821,-168.083C330.881,-160.927 332.406,-150.635 333.731,-141.691"/>
<polygon fill="midnightblue" stroke="midnightblue" points="337.2,-142.156 335.204,-131.751 330.276,-141.13 337.2,-142.156"/>
</g>
<!-- Node12&#45;&gt;Node6 -->
<g id="edge16" class="edge"><title>Node12&#45;&gt;Node6</title>
<path fill="none" stroke="midnightblue" d="M470.417,-112.083C478.28,-104.22 489.931,-92.5688 499.419,-83.0813"/>
<polygon fill="midnightblue" stroke="midnightblue" points="502.153,-85.2971 506.749,-75.7511 497.203,-80.3473 502.153,-85.2971"/>
</g>
<!-- Node13&#45;&gt;Node6 -->
<g id="edge18" class="edge"><title>Node13&#45;&gt;Node6</title>
<path fill="none" stroke="midnightblue" d="M513.698,-168.386C526.751,-160.794 543.734,-148.389 551.5,-132 559.643,-114.816 546.472,-95.8708 533.834,-82.8895"/>
<polygon fill="midnightblue" stroke="midnightblue" points="535.883,-80.0084 526.228,-75.6467 531.056,-85.0776 535.883,-80.0084"/>
</g>
<!-- Node13&#45;&gt;Node12 -->
<g id="edge19" class="edge"><title>Node13&#45;&gt;Node12</title>
<path fill="none" stroke="midnightblue" d="M490.72,-168.083C485.828,-160.534 478.673,-149.495 472.667,-140.23"/>
<polygon fill="midnightblue" stroke="midnightblue" points="475.548,-138.239 467.172,-131.751 469.674,-142.046 475.548,-138.239"/>
</g>
</g>
</svg>
